<svg xmlns="http://www.w3.org/2000/svg" viewBox="0 0 109.33 76.55"><path d="M1.71,38.41c0,25.78,23.9,38.14,53.37,38.14s53.37-12.31,53.37-38.14S84.56.28,55.08.28,1.71,12.64,1.71,38.41ZM38,35.91c0-4.13,7.63-7.48,17-7.48s17,3.35,17,7.48-7.63,7.49-17,7.49S38,40.05,38,35.91Z" fill="#f98b06"/><path d="M39.17,28.9c2.81.56,5.61-.67,8.36-1.46a27.87,27.87,0,0,1,15.6.08c2.1.62,4.33,1.51,6.42.84a5.38,5.38,0,0,0,2.78-2.24c.45-.69.78-2.59,1.59-2.87,1.87-.64,1.89,5.9,1.78,7a6.93,6.93,0,0,1-1.81,4.47,6,6,0,0,1-1.77,1.11c-.08-4.11-7.68-7.42-17-7.42s-17,3.35-17,7.48c0,.06,0,.11,0,.17a9.69,9.69,0,0,1-3.14-1.63,10.09,10.09,0,0,1-3.28-5.86,26.3,26.3,0,0,1-.23-6.81C33.28,24.87,35.62,28.19,39.17,28.9Z" fill="#ce6f06"/><path d="M1.71,38.41A39.5,39.5,0,0,0,2,43.48c1.11.11,2.28-.62,3.43-.91a6.51,6.51,0,0,1,6,2.06,22.41,22.41,0,0,1,3.59,5.57c2.4,4.57,5.28,9,9.33,12.22s9.47,5,14.48,3.76c4.08-1,7.71-3.92,11.91-3.84,4.74.11,8.72,4,13.45,4.25,7.28.34,12.18-7.83,19.27-9.52,4.56-1.09,10,.5,13.62-2.49,3.34-2.76,3.4-8.25,6.82-10.92,1.38-1.07,3.19-1.58,4.34-2.9l.1-.14c0-.72.06-1.46.06-2.21Z" fill="#ce6f06"/><path d="M64.33,73.76c28.46-2.3,44.12-17.47,44.05-37.74.05.78.07,1.58.07,2.39,0,25.83-23.89,38.14-53.37,38.14S1.71,64.19,1.71,38.41c0-.81,0-1.61.07-2.39C8.89,62.12,35.55,76.09,64.33,73.76Z" fill="#ce6f06"/><path d="M1.39,41.41C2.68,42,4.1,41,5.47,40.66a6.54,6.54,0,0,1,6,2.06,22.47,22.47,0,0,1,3.59,5.58c2.4,4.56,5.28,9,9.33,12.21s9.47,5,14.48,3.77c4.08-1,7.71-3.93,11.91-3.84,4.74.1,8.72,4,13.45,4.25,7.28.34,12.18-7.84,19.27-9.53,4.56-1.09,10,.51,13.62-2.48,3.34-2.77,3.4-8.25,6.82-10.92,1.38-1.08,3.19-1.59,4.34-2.91,1.85-2.13.79-5.28.16-8C103,6.9,78.9.1,55.08.28c-23.45.17-46.67,7-51.7,24A51.13,51.13,0,0,0,.07,37.34C-.11,38.86,0,40.78,1.39,41.41ZM33.88,25.87c0-1.85,1.77-2.52,3.32-2.53s3.06.68,4.6.58c3.25-.21,5.67-3.78,8.82-4.74,5-1.52,9.84,3.78,14.95,3.23,1.65-.18,3.28-1,4.91-.66a3.14,3.14,0,0,1,2.69,4.12C70,37,33.88,36.14,33.88,25.87Z" fill="#edeae6"/><path d="M6.78,37.48c4-.14,7.57,2.59,9.9,5.84s3.72,7,5.73,10.49,4.89,6.71,8.76,7.69c8.17,2,16-6.8,24.28-5.14,4.47.89,8.45,4.81,12.9,3.83,3.62-.8,5.71-4.48,8.51-6.92A14.28,14.28,0,0,1,87.8,49.9c3.45.41,7.53,1.89,10-.59,2.23-2.29,1.18-6.35,3-8.94a9.42,9.42,0,0,1,4.2-2.74,9.18,9.18,0,0,0,4.18-2.76.83.83,0,0,0,.07-.13,5,5,0,0,1-1,4.11c-1.15,1.32-3,1.83-4.34,2.91-3.42,2.67-3.48,8.15-6.82,10.92-3.62,3-9.06,1.39-13.62,2.48-7.09,1.69-12,9.87-19.27,9.53-4.73-.22-8.71-4.15-13.45-4.25-4.2-.09-7.83,2.83-11.91,3.84-5,1.23-10.42-.57-14.48-3.77s-6.93-7.65-9.33-12.21a22.47,22.47,0,0,0-3.59-5.58,6.54,6.54,0,0,0-6-2.06C4.1,41,2.68,42,1.39,41.41.28,40.91,0,39.61,0,38.33a4.93,4.93,0,0,0,.76.05C2.79,38.36,4.75,37.56,6.78,37.48Z" fill="#d6d2cc"/><path d="M84.57,46.16c-.27.42.31,1.4,1.77,2.44A9.57,9.57,0,0,0,89.26,50a8.82,8.82,0,0,0,4.18.14A7.42,7.42,0,0,0,97.31,48a6,6,0,0,0,1.59-3.24,3.91,3.91,0,0,0-.33-2.37c-.28-.51-.61-.69-.84-.62-.51.16-.63,1.15-1.32,2.21A5.84,5.84,0,0,1,95,45.51a6.22,6.22,0,0,1-2.3,1,12.87,12.87,0,0,1-5.27-.27C85.92,45.9,84.84,45.72,84.57,46.16Z" fill="#fff"/><path d="M61.82,54c-.19.17-.19.54,0,1.06a6.58,6.58,0,0,0,2.5,3.13,5.91,5.91,0,0,0,2,.84A5.28,5.28,0,0,0,69,58.91a4.87,4.87,0,0,0,1.37-.72,5.17,5.17,0,0,0,1-1.07,13.29,13.29,0,0,0,1.09-1.88,14.14,14.14,0,0,1,.79-1.33,18.76,18.76,0,0,1,1.67-2.15c1.07-1.19,1.9-2,1.7-2.45s-1.45-.54-3.24.34a10,10,0,0,0-2.78,2.12,10.41,10.41,0,0,0-1.28,1.66c-.37.61-.66,1.15-.92,1.49a1.47,1.47,0,0,1-.64.57,2.25,2.25,0,0,1-1,.18,4.44,4.44,0,0,1-1.09-.18A6.76,6.76,0,0,1,64.65,55c-.69-.35-1.3-.72-1.79-.93S62,53.84,61.82,54Z" fill="#fff"/><path d="M19.52,44c-.41.3.12,1.84,1.32,4.08.59,1.13,1.36,2.43,2.25,3.84.45.7.93,1.44,1.44,2.19s1,1.51,1.64,2.34a13.05,13.05,0,0,0,2.2,2.34,7.63,7.63,0,0,0,2.95,1.49,8.4,8.4,0,0,0,2.86.2A10.42,10.42,0,0,0,36.44,60a10.86,10.86,0,0,0,2.86-1.38c.61-.44.9-.8.81-1s-.53-.33-1.26-.33-1.73.13-2.9.18a9,9,0,0,1-3.65-.41,5,5,0,0,1-1.61-1,12.59,12.59,0,0,1-1.57-1.79L27.47,52c-.55-.72-1.09-1.41-1.61-2.06-1-1.31-2-2.45-2.9-3.38C21.22,44.75,19.94,43.75,19.52,44Z" fill="#fff"/><path d="M28.59,37c5.62,7.61-19.68-3.47-9.21-20.57A22.88,22.88,0,0,1,30.17,7.15,70.18,70.18,0,0,1,50,2.37c3-.29,5.94-.44,8.75-.44A74.68,74.68,0,0,1,74.87,3.65a44.81,44.81,0,0,1,13.21,5l0,0,.05,0c3.72,2.42,8.18,6,9.6,12l0,.13,0,.14,0,.35A11.5,11.5,0,0,1,98,24,14.84,14.84,0,0,1,93.89,33h0l0,0a24.88,24.88,0,0,1-5.25,4.14,43,43,0,0,1-9.34,4h0a47.69,47.69,0,0,1-13.61,2.2H65.4A17.52,17.52,0,0,1,61,42.89c-2.74-.76-3.26-2.34-3.32-3.21-.23-2.88,3.23-4.15,4.9-4.77a2.93,2.93,0,0,0,.31-.12c1-.41,2-.8,2.92-1.19s1.76-.71,2.63-1.08c4.31-1.81,18-11.28,3-14A98.23,98.23,0,0,0,53.88,16.8c-1,0-1.94,0-2.93,0-6,.17-12.42,1.2-17.07,3.37C29.53,22.25,23,29.42,28.59,37Z" fill="#f4f2ef"/><path d="M29,21.49c.22.13.62,0,1.14-.41l.42-.33.51-.38c.36-.26.73-.6,1.21-.92l.72-.52c.26-.18.55-.35.83-.54.55-.39,1.23-.72,1.89-1.13a38,38,0,0,1,4.95-2.14,50.38,50.38,0,0,1,13.92-2.54,53.75,53.75,0,0,1,8.35.27,38.81,38.81,0,0,1,8.53,1.85,20.28,20.28,0,0,1,7,3.88,10,10,0,0,1,2.08,2.54,4.5,4.5,0,0,1,.61,2.34c-.06,1.54-1.19,3.43-2.7,5a28.61,28.61,0,0,1-5,4A64.26,64.26,0,0,1,64.9,37c-2.14,1-3.39,1.58-3.34,2.11s1.49.87,4,.68A31.56,31.56,0,0,0,76,37a28.83,28.83,0,0,0,6.63-4.08,17.56,17.56,0,0,0,3.21-3.49A12.08,12.08,0,0,0,88,24.17a11.3,11.3,0,0,0-1-6.16,16.35,16.35,0,0,0-3.45-4.7,25.87,25.87,0,0,0-9.58-5.6A41.15,41.15,0,0,0,63.6,5.64,49.77,49.77,0,0,0,54,5.79a43.46,43.46,0,0,0-15.48,4.56,28.51,28.51,0,0,0-5.23,3.54,22.85,22.85,0,0,0-1.84,1.86c-.26.31-.51.6-.73.89l-.6.87A10,10,0,0,0,29.31,19a6.7,6.7,0,0,0-.28.65c-.06.21-.11.4-.15.58C28.73,21,28.76,21.37,29,21.49Z" fill="#fff"/><path d="M14.92,14.7c1.08-1.46,2.2-1.92,2.71-1.56s.49,1.44.37,2.84a30,30,0,0,0-.16,5.08,29.65,29.65,0,0,0,.88,5c.32,1.37.53,2.41.05,2.86s-1.64.13-2.91-1.15a10.26,10.26,0,0,1-2.72-6.38A10.26,10.26,0,0,1,14.92,14.7Z" fill="#fff"/><path d="M21.4,32.46c.56-.36,1.56.15,2.85,1s2.91,2.05,4.77,3.26,3.6,2.2,4.91,3S36.11,41.3,36,42,34.79,43,33,43a12,12,0,0,1-3.07-.6,15.24,15.24,0,0,1-6.39-4.15,11.75,11.75,0,0,1-1.8-2.57C20.91,34,20.87,32.8,21.4,32.46Z" fill="#fff"/><path d="M44.31,40.73c2.93.19,5.24,1.4,5.15,2.7s-2.53,2.19-5.47,2S38.75,44,38.84,42.72,41.37,40.53,44.31,40.73Z" fill="#fff"/><path d="M38.43,21.65c1.71-.1,3.48.14,5.1-.42,1.94-.68,3.35-2.42,5.21-3.3,2.51-1.21,5.54-.69,8,.54,1.55.77,3,1.81,4.73,2,2.13.29,4.18-.73,6.25-1.28s4.67-.45,5.85,1.36a4.37,4.37,0,0,1,0,4.21c-.13.27-.26.52-.4.76a3.12,3.12,0,0,0-2.75-3.81c-1.63-.31-3.26.48-4.91.66-5.11.55-10-4.75-14.95-3.23-3.15,1-5.57,4.53-8.82,4.74-1.54.1-3-.59-4.6-.58s-3.32.68-3.32,2.53c0,.07,0,.13,0,.19a3.16,3.16,0,0,1,.19-2.14C34.83,22.35,36.72,21.74,38.43,21.65Z" fill="#d6d2cc"/><path d="M103.79,25.37c-.87,0-1.93.13-3.16.24l-1.95.3-1.07.18-1.11.24a55,55,0,0,0-10.4,3.4,69.43,69.43,0,0,0-11.67,6.55A81.21,81.21,0,0,0,64.1,44.74a88.59,88.59,0,0,0-7.38,8c-3.9,4.81-5.8,8.15-5.57,8.31s2.61-2.81,6.75-7.29A110.8,110.8,0,0,1,75.69,38.1a80.35,80.35,0,0,1,11.25-6.51,63.78,63.78,0,0,1,9.94-3.73l1.06-.31c.35-.1.69-.17,1-.26l1.88-.45,3-.61c1.68-.27,2.62-.5,2.61-.65S105.53,25.36,103.79,25.37Z" fill="#ff83b3"/><path d="M54.44,36.48,56,35.79c3.91-1.75,6.46-2.62,6.37-2.95,0-.15-.72-.1-1.93.12l-1,.2c-.36.08-.75.19-1.17.3-.84.24-1.81.49-2.84.87l-1.62.58c-.57.21-1.14.47-1.73.71-1.21.48-2.44,1.11-3.75,1.75a61.57,61.57,0,0,0-8,5,62.12,62.12,0,0,0-7.1,6.28c-1,1.07-1.94,2.08-2.74,3.1-.41.5-.81,1-1.17,1.46s-.69,1-1,1.39c-.66.88-1.17,1.74-1.63,2.48-.23.37-.45.71-.63,1l-.47.9c-.55,1.1-.79,1.74-.66,1.82.29.18,1.85-2,4.63-5.27l1.1-1.28c.38-.44.81-.87,1.23-1.33.84-.94,1.81-1.87,2.81-2.87a80.52,80.52,0,0,1,7-6,81.67,81.67,0,0,1,7.67-5c1.24-.67,2.41-1.34,3.55-1.88C53.37,37,53.91,36.73,54.44,36.48Z" fill="#ff83b3"/><path d="M76.94,20.86c-.6.51-1.13,1-1.6,1.51-1.88,1.93-2.75,3.37-2.53,3.56s1.5-.83,3.56-2.38c.52-.39,1.08-.82,1.71-1.25s1.29-.88,2-1.35c1.44-.91,3-1.86,4.78-2.75s3.46-1.61,5-2.22c.8-.29,1.55-.58,2.27-.81s1.39-.45,2-.64c2.48-.74,4.07-1.14,4-1.46s-1.69-.44-4.36-.07c-.67.1-1.4.22-2.17.4s-1.59.4-2.44.65a36.28,36.28,0,0,0-5.38,2.17,37,37,0,0,0-4.94,3.05C78.2,19.81,77.53,20.33,76.94,20.86Z" fill="#ff83b3"/><path d="M29.82,30.8c.36-.11.71-.25,1.05-.34l1-.25c.62-.19,1.2-.27,1.7-.39s1-.19,1.32-.26c.73-.15,1.14-.3,1.15-.45s-.41-.29-1.17-.41a7.2,7.2,0,0,0-1.41-.11,12.22,12.22,0,0,0-1.86.07l-1.08.13c-.38.05-.76.15-1.16.23a21.51,21.51,0,0,0-2.51.72,25,25,0,0,0-5.32,2.71,30.43,30.43,0,0,0-7.62,7.48c-1.57,2.23-2.24,3.78-2,3.94s1.4-1,3.22-2.94a47.88,47.88,0,0,1,7.65-6.64,32.85,32.85,0,0,1,4.82-2.65C28.36,31.33,29.1,31,29.82,30.8Z" fill="#ff83b3"/><path d="M56.31,13.81l-.7,1c-1.73,2.52-2.34,4.33-2.1,4.45s1.37-1.32,3.33-3.47l.77-.84.87-.87c.58-.62,1.29-1.2,2-1.86a49.38,49.38,0,0,1,4.94-3.76,44.43,44.43,0,0,1,5.42-3c.87-.38,1.69-.76,2.49-1,.4-.15.78-.32,1.16-.44l1.08-.36C78.3,2.71,80.11,2.37,80.08,2c0-.15-.48-.24-1.34-.28H78l-.84.06a17.29,17.29,0,0,0-2,.27L74,2.31c-.41.08-.82.21-1.25.33A26.31,26.31,0,0,0,70,3.55a33.31,33.31,0,0,0-5.84,3,35.81,35.81,0,0,0-5.11,4.11c-.69.74-1.38,1.41-1.93,2.12C56.84,13.15,56.57,13.49,56.31,13.81Z" fill="#ff83b3"/><path d="M14.77,18.26l1.17-1c.41-.33.84-.63,1.26-.95.86-.63,1.7-1.31,2.61-1.93l2.8-1.85c1-.61,2-1.16,3-1.76a80.71,80.71,0,0,1,12-5.44l2.82-.91c.46-.14.9-.31,1.35-.43l1.34-.36L45.61,3,48,2.42c1.5-.38,2.88-.6,4.08-.84l1.69-.33L55.16,1c1.71-.3,2.65-.54,2.64-.7s-1-.2-2.73-.16L53.61.2c-.53,0-1.11.09-1.73.15-1.24.13-2.66.25-4.2.53l-2.43.4c-.85.17-1.71.38-2.62.58l-1.38.31c-.46.1-.92.26-1.4.39l-2.93.85A70.46,70.46,0,0,0,24.5,8.85c-1,.61-2.08,1.19-3.07,1.82l-2.87,1.95c-.94.65-1.79,1.36-2.66,2-.43.34-.87.66-1.28,1l-1.18,1.06c-.77.7-1.56,1.35-2.26,2.05l-2,2c-.32.33-.65.65-.94,1l-.86,1-1.6,1.88a54.57,54.57,0,0,0-4.29,6.07C.58,32.24.14,33.11.27,33.19s.81-.62,1.91-1.95S4.91,28,7,25.7L8.63,24,9.51,23c.31-.31.64-.61,1-.92l2-1.92C13.22,19.53,14,18.92,14.77,18.26Z" fill="#ff83b3"/><path d="M59.21,61.87c-.14-.32-.31-.7-.5-1.11a45.27,45.27,0,0,0-4-6.62A110.2,110.2,0,0,0,37.24,35.59c-7.57-6.47-15.33-11.33-21.51-13.66a27.66,27.66,0,0,0-7.57-1.87C7.7,20,7.29,20,6.93,20l-.9.06c-.48.05-.73.11-.73.19s.25.16.71.26l.86.15c.34.06.73.16,1.16.25a36.27,36.27,0,0,1,7.09,2.47c5.81,2.6,13.24,7.54,20.69,13.9A144,144,0,0,1,53.42,55.1c2,2.48,3.54,4.59,4.54,6.08l1.14,1.73c.27.4.45.59.52.56s0-.29-.12-.75C59.43,62.49,59.34,62.2,59.21,61.87Z" fill="#64e0ed"/><path d="M23.78,8.34l1,.34c.35.11.71.27,1.08.41.76.26,1.53.62,2.36,1a47.43,47.43,0,0,1,5.15,2.74,47.71,47.71,0,0,1,4.7,3.43c.68.59,1.34,1.14,1.91,1.7.29.28.58.53.84.8l.75.76c1.91,2,3,3.31,3.28,3.13s-.4-1.81-2.08-4.14l-.68-.9c-.24-.31-.51-.61-.79-.93-.54-.65-1.19-1.28-1.87-2a34,34,0,0,0-4.89-3.78A33.89,33.89,0,0,0,29,8.16c-.9-.31-1.75-.62-2.57-.82-.41-.11-.8-.23-1.18-.31l-1.11-.21c-2.83-.5-4.61-.34-4.63-.07S21.18,7.48,23.78,8.34Z" fill="#64e0ed"/><path d="M78.46,46.2a48.28,48.28,0,0,0-4-5.18,39,39,0,0,0-4.66-4.62,16,16,0,0,0-4.77-2.73,9.76,9.76,0,0,0-3.68-.57c-.88.06-1.34.26-1.33.4,0,.34,1.88.35,4.41,1.62a18.37,18.37,0,0,1,4,2.84,54.67,54.67,0,0,1,4.31,4.53c1.48,1.68,2.83,3.33,4,4.87a46.92,46.92,0,0,1,2.82,4.26c1.47,2.51,2.14,4.23,2.46,4.14s.12-2-1-4.83A29.13,29.13,0,0,0,78.46,46.2Z" fill="#64e0ed"/><path d="M98.07,39.21A44.84,44.84,0,0,0,92.7,26.84,50,50,0,0,0,88,20.4c-.89-1.06-1.88-2.07-2.87-3.1s-2.08-2-3.2-3A61.55,61.55,0,0,0,68.06,5.4,59.14,59.14,0,0,0,55.33,1.05a43.31,43.31,0,0,0-9-1,17.85,17.85,0,0,0-2.46.1c-.56.06-.85.13-.85.2s.29.16.85.25,1.36.14,2.4.31A63.3,63.3,0,0,1,55,2.57a67.14,67.14,0,0,1,12.2,4.66A65.58,65.58,0,0,1,80.45,16c1.09.91,2.09,1.89,3.09,2.83s1.92,1.95,2.79,3A49.68,49.68,0,0,1,91,27.93a47.43,47.43,0,0,1,5.59,11.72,52.16,52.16,0,0,1,1.93,8.6c.27,2.08.41,3.25.58,3.24s.29-1.17.28-3.31A38.2,38.2,0,0,0,98.07,39.21Z" fill="#64e0ed"/></svg>