<svg xmlns="http://www.w3.org/2000/svg" viewBox="0 0 109.33 76.28"><g style="isolation:isolate"><path d="M54.25,0C24.77,0,.88,12.32.88,38.14S24.77,76.28,54.25,76.28s53.37-12.36,53.37-38.14S83.72,0,54.25,0Zm0,43.13c-9.42,0-17-3.36-17-7.49s7.63-7.49,17-7.49,17,3.36,17,7.49S63.66,43.13,54.25,43.13Z" fill="#f98b06"/><path d="M70.15,28.62c-2.8.56-5.6-.67-8.35-1.46a28,28,0,0,0-15.6.08c-2.1.63-4.33,1.52-6.42.85A5.4,5.4,0,0,1,37,25.84c-.45-.68-.78-2.58-1.59-2.86-1.87-.64-1.89,5.9-1.78,7a6.92,6.92,0,0,0,1.81,4.46,5.63,5.63,0,0,0,1.77,1.11c.08-4.1,7.68-7.42,17-7.42s17,3.36,17,7.49c0,.06,0,.11,0,.16a9.5,9.5,0,0,0,3.14-1.63,10,10,0,0,0,3.27-5.85,25.86,25.86,0,0,0,.24-6.81C76,24.6,73.71,27.91,70.15,28.62Z" fill="#ce6f06"/><path d="M.88,38.14c0,.75,0,1.49.06,2.21a1.13,1.13,0,0,0,.1.13c1.14,1.32,3,1.83,4.34,2.91,3.42,2.67,3.48,8.15,6.82,10.92,3.62,3,9.06,1.4,13.62,2.48,7.08,1.69,12,9.87,19.27,9.53,4.73-.22,8.71-4.15,13.45-4.25,4.2-.09,7.83,2.83,11.91,3.84,5,1.24,10.42-.57,14.47-3.77s6.93-7.64,9.34-12.21a22.37,22.37,0,0,1,3.59-5.58,6.54,6.54,0,0,1,6-2.06c1.14.3,2.32,1,3.43.92a39.62,39.62,0,0,0,.33-5.07Z" fill="#ce6f06"/><path d="M45,73.49C16.54,71.19.88,56,1,35.75c0,.78-.07,1.58-.07,2.39C.88,64,24.77,76.28,54.25,76.28s53.37-12.36,53.37-38.14c0-.81,0-1.61-.07-2.39C100.44,61.85,73.78,75.82,45,73.49Z" fill="#ce6f06"/><path d="M109.26,37.06A51.35,51.35,0,0,0,106,24C100.92,7,77.7.18,54.25,0,30.43-.17,6.37,6.62.88,30.55c-.63,2.75-1.69,5.9.16,8,1.14,1.32,3,1.83,4.34,2.9C8.8,44.15,8.86,49.64,12.2,52.4c3.62,3,9.06,1.4,13.62,2.49,7.08,1.69,12,9.86,19.27,9.52,4.73-.22,8.71-4.14,13.45-4.24,4.2-.09,7.83,2.82,11.91,3.83,5,1.24,10.42-.56,14.47-3.76S91.85,52.59,94.26,48a22.13,22.13,0,0,1,3.59-5.57,6.51,6.51,0,0,1,6-2.06c1.37.36,2.79,1.33,4.08.75S109.44,38.59,109.26,37.06ZM36.16,25.6a3.14,3.14,0,0,1,2.69-4.12c1.63-.31,3.26.47,4.9.65,5.12.55,10-4.75,15-3.23,3.15,1,5.57,4.53,8.81,4.75,1.55.1,3.06-.59,4.61-.58s3.31.68,3.31,2.53C75.44,35.87,39.34,36.73,36.16,25.6Z" fill="#6b320b"/><path d="M46.58,37.11c1.48-1.29,3-2.54,4.55-3.77a29,29,0,0,1-10.76-3.05c-4.2,3.74-8,7.59-11.82,11.11a71.38,71.38,0,0,1-11.86,9.17c-1,.62-2.08,1.18-3.14,1.69l-1,.44c3.61,2.57,8.82,1.14,13.22,2.19.21,0,.41.1.62.17a98.56,98.56,0,0,0,8.32-6.9C38.84,44.44,42.64,40.6,46.58,37.11Z" fill="#efc184"/><path d="M.21,33.5l.23-.19c.49-.42,1.07-1,1.75-1.59l1.09-1,.6-.59.67-.58,3.07-2.7c1.09-1,2.4-2,3.78-3.13L13.55,22a13,13,0,0,1,1.16-.87l1.22-.86c1.66-1.17,3.37-2.49,5.34-3.65l3-1.87c.25-.16.5-.33.76-.48l.81-.44,1.63-.91c1.11-.6,2.23-1.24,3.39-1.86l3.65-1.75,1.88-.9c.64-.29,1.3-.54,2-.82l4-1.66c1.39-.51,2.83-1,4.29-1.5.73-.24,1.46-.51,2.2-.75L51.14,3l2.32-.65c.78-.22,1.56-.46,2.37-.62L60.72.67l.62-.14L62,.43l.51-.08C59.76.14,57,0,54.25,0A106.54,106.54,0,0,0,40.83.72l-.48.2L36.19,2.86c-.68.32-1.36.62-2,1l-1.92,1-3.7,2c-1.18.71-2.31,1.44-3.42,2.13l-1.65,1-.8.51c-.27.17-.52.37-.77.55l-3,2.13c-1.95,1.34-3.63,2.83-5.25,4.16l-1.19,1c-.39.33-.77.65-1.12,1l-2.05,2C8,22.61,6.8,23.75,5.8,24.93s-2,2.18-2.78,3.12l-.59.68-.52.69L1,30.65c-.08.1-.14.2-.21.29C.59,31.78.37,32.65.21,33.5Z" fill="#efc184"/><path d="M100.87,30.74c2.29-1,4.48-1.79,6.56-2.48-.34-1.14-.73-2.27-1.15-3.39-2.18.54-4.48,1.22-6.88,2.07a79.27,79.27,0,0,0-14.49,6.84A81.33,81.33,0,0,0,77.36,39c-2.49,2-5,4.08-7.45,6.34-5,4.51-9.9,9.53-15.42,14.24-1.38,1.16-2.79,2.3-4.25,3.39,2.72-1.21,5.36-2.74,8.3-2.8a11.54,11.54,0,0,1,4.07.74c4.07-4,7.72-7.85,11.29-11.36q3.46-3.45,6.87-6.36A78.05,78.05,0,0,1,87.59,38,81.11,81.11,0,0,1,100.87,30.74Z" fill="#efc184"/><path d="M91.74,12.36l3.79-1c.36-.1.72-.18,1.09-.26A44.62,44.62,0,0,0,84.9,4.88,125.52,125.52,0,0,0,55.64,18.72a7,7,0,0,1,3.07.18c2.61.8,4.73,3.39,7.23,4.37a120.08,120.08,0,0,1,22-9.74C89.24,13.14,90.49,12.73,91.74,12.36Z" fill="#efc184"/><path d="M42.89,63.78a69.21,69.21,0,0,1,6.82-10.23A89.36,89.36,0,0,1,69.07,35.91a152.06,152.06,0,0,1,25-13.5c2.25-1,4.54-1.94,6.85-2.89l2.59-1a26.93,26.93,0,0,0-6.27-7c-2.25,1-4.5,1.92-6.71,2.93A175,175,0,0,0,73.4,23.24a2.4,2.4,0,0,1,2,2.36c0,4.88-8.14,7.63-17,8A92.18,92.18,0,0,0,43.57,48.73a74.68,74.68,0,0,0-7.35,11.55l-.27.54a18.21,18.21,0,0,0,6.71,3.39Z" fill="#efc184"/><path d="M41.56,10.76a96.59,96.59,0,0,0-13.14,7.93,81.35,81.35,0,0,0-12,10.52l-1.36,1.52-.68.76-.65.79-1.31,1.59-1.25,1.65-.62.82L10,37.2,8.78,38.91C8.05,40.1,7.27,41.26,6.6,42.5c0,0,0,.08-.07.13,2.22,2.73,2.71,6.91,5.26,9.39l.1-.25c.25-.56.48-1.12.76-1.66l.8-1.65c.28-.54.59-1.06.88-1.6.56-1.08,1.24-2.09,1.86-3.13l1-1.51.51-.76.54-.73,1.07-1.46,1.14-1.41.57-.7.6-.68,1.18-1.36a75.33,75.33,0,0,1,10.62-9.55c.89-.65,1.8-1.29,2.71-1.92a3.29,3.29,0,0,1,2.7-2.17,4.88,4.88,0,0,1,.76-.07c1.88-1.16,3.8-2.25,5.75-3.25A134.94,134.94,0,0,1,70.65,8.31c4.21-1.22,8.53-2.21,12.87-3.59L84,4.56A80.86,80.86,0,0,0,68.07.93,138.91,138.91,0,0,0,41.56,10.76Z" fill="#efc184"/><path d="M102.55,37.21c-4-.14-7.58,2.59-9.9,5.83s-3.72,7.05-5.73,10.5S82,60.25,78.16,61.22c-8.17,2.06-16-6.79-24.28-5.13C49.41,57,45.43,60.9,41,59.92c-3.62-.8-5.71-4.48-8.51-6.92a14.28,14.28,0,0,0-10.94-3.37c-3.45.41-7.54,1.89-10-.6-2.23-2.28-1.18-6.35-3.05-8.94a9.32,9.32,0,0,0-4.2-2.73A9.2,9.2,0,0,1,.14,34.59l-.08-.12a5.1,5.1,0,0,0,1,4.11c1.14,1.32,3,1.83,4.34,2.9C8.8,44.15,8.86,49.64,12.2,52.4c3.62,3,9.06,1.4,13.62,2.49,7.08,1.69,12,9.86,19.27,9.52,4.73-.22,8.71-4.14,13.45-4.24,4.2-.09,7.83,2.82,11.91,3.83,5,1.24,10.42-.56,14.47-3.76S91.85,52.59,94.26,48a22.13,22.13,0,0,1,3.59-5.57,6.51,6.51,0,0,1,6-2.06c1.37.36,2.79,1.33,4.08.75,1.11-.5,1.4-1.81,1.39-3.08a6.61,6.61,0,0,1-.76,0C106.54,38.09,104.58,37.28,102.55,37.21Z" fill="#844012" opacity="0.38" style="mix-blend-mode:multiply"/><path d="M70.89,21.37c-1.71-.09-3.47.15-5.09-.42-1.94-.68-3.35-2.41-5.21-3.3-2.52-1.2-5.54-.69-8,.55-1.55.76-3,1.8-4.73,2-2.13.28-4.18-.73-6.25-1.29s-4.67-.45-5.85,1.37a4.38,4.38,0,0,0,0,4.2c.13.27.27.53.41.77a3.12,3.12,0,0,1,2.75-3.81c1.63-.31,3.26.47,4.9.65,5.12.55,10-4.75,15-3.23,3.15,1,5.57,4.53,8.81,4.75,1.55.1,3.06-.59,4.61-.58s3.31.68,3.31,2.53a1.09,1.09,0,0,1,0,.18,3.11,3.11,0,0,0-.18-2.14C74.5,22.07,72.6,21.47,70.89,21.37Z" fill="#844012" opacity="0.38" style="mix-blend-mode:multiply"/><g opacity="0.46" style="mix-blend-mode:overlay"><path d="M24.76,45.89c.26.42-.31,1.4-1.77,2.44a9.57,9.57,0,0,1-2.92,1.36,9,9,0,0,1-4.18.14A7.37,7.37,0,0,1,12,47.72a6,6,0,0,1-1.59-3.24,3.89,3.89,0,0,1,.33-2.36c.28-.51.61-.69.84-.62.5.16.62,1.15,1.32,2.2a5.66,5.66,0,0,0,1.42,1.53,6.11,6.11,0,0,0,2.31,1A12.88,12.88,0,0,0,21.92,46C23.41,45.63,24.49,45.45,24.76,45.89Z" fill="#fff"/><path d="M47.51,53.74c.19.17.19.53,0,1a6.15,6.15,0,0,1-1.19,2A6.93,6.93,0,0,1,45,57.93a5.9,5.9,0,0,1-2,.83,5.16,5.16,0,0,1-2.65-.13A4.41,4.41,0,0,1,39,57.91a5.19,5.19,0,0,1-1-1.06A13.07,13.07,0,0,1,36.86,55a14.33,14.33,0,0,0-.79-1.34,18.37,18.37,0,0,0-1.68-2.14c-1.06-1.19-1.89-2-1.69-2.45s1.45-.54,3.24.34a9.93,9.93,0,0,1,2.78,2.11A11,11,0,0,1,40,53.16c.37.61.66,1.15.91,1.49a1.63,1.63,0,0,0,.65.57,2.12,2.12,0,0,0,1,.17,3.66,3.66,0,0,0,1.09-.18,7.79,7.79,0,0,0,1.07-.45c.69-.35,1.3-.73,1.78-.93S47.31,53.57,47.51,53.74Z" fill="#fff"/><path d="M89.81,43.77c.41.3-.12,1.83-1.32,4.08-.59,1.12-1.36,2.42-2.25,3.83q-.67,1.07-1.44,2.19c-.51.76-1,1.51-1.64,2.34A13.1,13.1,0,0,1,81,58.56,7.84,7.84,0,0,1,78,60.05a8.41,8.41,0,0,1-2.86.2,10.65,10.65,0,0,1-2.27-.48A10.77,10.77,0,0,1,70,58.39c-.62-.44-.9-.8-.82-1s.54-.34,1.27-.33,1.73.13,2.9.18A9.12,9.12,0,0,0,77,56.79a5.28,5.28,0,0,0,1.61-1A12.72,12.72,0,0,0,80.21,54l1.65-2.21c.54-.73,1.08-1.42,1.61-2.07,1-1.3,2-2.44,2.9-3.37C88.11,44.47,89.39,43.47,89.81,43.77Z" fill="#fff"/></g><path d="M80.73,36.75c-5.61,7.61,19.69-3.47,9.21-20.57A22.91,22.91,0,0,0,79.16,6.87,70.51,70.51,0,0,0,59.34,2.1c-3-.29-5.93-.44-8.74-.44A74.68,74.68,0,0,0,34.46,3.38a44.8,44.8,0,0,0-13.21,5l-.05,0-.05,0c-3.73,2.42-8.18,6-9.6,12l0,.14,0,.13,0,.36a11,11,0,0,0-.11,2.67,14.79,14.79,0,0,0,4.09,8.92v0h0a24.88,24.88,0,0,0,5.25,4.14,42.76,42.76,0,0,0,9.33,4.06h.05a47.79,47.79,0,0,0,13.61,2.21h.22a17.11,17.11,0,0,0,4.39-.5c2.73-.76,3.26-2.34,3.32-3.22.23-2.87-3.23-4.15-4.9-4.76l-.32-.12c-1-.41-2-.81-2.91-1.19l-2.63-1.08c-4.32-1.81-18-11.29-3-14a99.21,99.21,0,0,1,17.58-1.76c1,0,1.94,0,2.93,0,6,.16,12.42,1.19,17.06,3.37C79.8,22,86.35,29.15,80.73,36.75Z" fill="#fff" opacity="0.16" style="mix-blend-mode:overlay"/><path d="M80.34,21.22c-.22.12-.62,0-1.14-.42l-.42-.32-.51-.38c-.37-.27-.73-.6-1.22-.92l-.72-.53-.82-.53c-.55-.39-1.23-.73-1.9-1.13a36.12,36.12,0,0,0-5-2.14,49.5,49.5,0,0,0-13.91-2.54,52.51,52.51,0,0,0-8.35.27,38.79,38.79,0,0,0-8.53,1.84,20.46,20.46,0,0,0-7,3.89,10,10,0,0,0-2.08,2.53,4.56,4.56,0,0,0-.61,2.35c.05,1.53,1.19,3.43,2.7,5a28.24,28.24,0,0,0,4.95,4,65.44,65.44,0,0,0,8.63,4.6c2.14,1,3.39,1.57,3.33,2.1s-1.48.88-4,.69a31.5,31.5,0,0,1-10.42-2.79,28.55,28.55,0,0,1-6.63-4.09,17.22,17.22,0,0,1-3.21-3.48,12.12,12.12,0,0,1-2.09-5.28,11.21,11.21,0,0,1,1-6.16A16.3,16.3,0,0,1,25.87,13a25.82,25.82,0,0,1,9.58-5.61A41.62,41.62,0,0,1,45.72,5.36a50.66,50.66,0,0,1,9.58.16,43.26,43.26,0,0,1,15.48,4.55A29,29,0,0,1,76,13.62a19.87,19.87,0,0,1,1.83,1.86c.27.31.52.59.74.88l.59.87A9.34,9.34,0,0,1,80,18.77a4.29,4.29,0,0,1,.27.65c.07.21.12.4.16.57C80.6,20.69,80.56,21.09,80.34,21.22Z" fill="#fff" opacity="0.46" style="mix-blend-mode:overlay"/><path d="M90.75,16.32c-.85-1.14-1.73-1.51-2.13-1.22s-.38,1.13-.29,2.22a22.77,22.77,0,0,1,.13,4,24,24,0,0,1-.69,3.93c-.25,1.07-.42,1.89,0,2.24s1.28.1,2.28-.9a8.34,8.34,0,0,0,.74-10.26Z" fill="#fff"/><path d="M85.66,30.26c-.44-.28-1.22.12-2.24.79s-2.28,1.61-3.73,2.56S76.86,35.34,75.83,36s-1.71,1.21-1.63,1.72,1,.85,2.37.78A9.17,9.17,0,0,0,79,38a12,12,0,0,0,2.71-1.31A12.45,12.45,0,0,0,84,34.77a9.44,9.44,0,0,0,1.41-2C86.05,31.48,86.08,30.53,85.66,30.26Z" fill="#fff"/><path d="M67.69,36.75c-2.31.15-4.12,1.1-4,2.12s2,1.72,4.29,1.57,4.12-1.11,4-2.12S70,36.6,67.69,36.75Z" fill="#fff"/><path d="M36.56,4.66c-1.35,0-1.59,2.1-.23,2.1S37.92,4.66,36.56,4.66Z" fill="#3d1302"/><path d="M36,18.13c-1.35,0-1.59,2.11-.23,2.11S37.36,18.13,36,18.13Z" fill="#3d1302"/><path d="M50.26,12c-1.35,0-1.59,2.1-.23,2.1S51.62,12,50.26,12Z" fill="#3d1302"/><path d="M49.24,1C47.89,1,47.65,3.13,49,3.13S50.6,1,49.24,1Z" fill="#3d1302"/><path d="M30.17,11.28c-1.35,0-1.59,2.1-.23,2.1S31.53,11.28,30.17,11.28Z" fill="#3d1302"/><path d="M26.23,6.9C24.88,6.9,24.64,9,26,9S27.59,6.9,26.23,6.9Z" fill="#3d1302"/><path d="M42.51,12.63c-1.35,0-1.59,2.1-.23,2.1S43.87,12.63,42.51,12.63Z" fill="#3d1302"/><path d="M46.55,5.33c-1.34,0-1.58,2.1-.22,2.1S47.91,5.33,46.55,5.33Z" fill="#3d1302"/><path d="M65.53,11.28c-1.34,0-1.58,2.1-.23,2.1S66.89,11.28,65.53,11.28Z" fill="#3d1302"/><path d="M61.15,14.77c-1.34,0-1.58,2.1-.23,2.1S62.51,14.77,61.15,14.77Z" fill="#3d1302"/><path d="M54.86,5.89c-1.34,0-1.58,2.1-.22,2.1S56.22,5.89,54.86,5.89Z" fill="#3d1302"/><path d="M46.1,16c-1.34,0-1.58,2.1-.22,2.1S47.46,16,46.1,16Z" fill="#3d1302"/><path d="M35.89,12.74c-1.35,0-1.59,2.1-.23,2.1S37.24,12.74,35.89,12.74Z" fill="#3d1302"/><path d="M41.05,2.08c-1.35,0-1.59,2.1-.23,2.1S42.41,2.08,41.05,2.08Z" fill="#3d1302"/><path d="M25.22,18.47c-1.35,0-1.59,2.1-.23,2.1S26.57,18.47,25.22,18.47Z" fill="#3d1302"/><path d="M31.17,28.8c-1.35,0-1.59,2.1-.23,2.1S32.53,28.8,31.17,28.8Z" fill="#3d1302"/><path d="M27.25,22.7c-1.35,0-1.59,2.1-.23,2.1S28.61,22.7,27.25,22.7Z" fill="#3d1302"/><path d="M17.72,38c-1.35,0-1.59,2.1-.23,2.1S19.07,38,17.72,38Z" fill="#3d1302"/><path d="M12.19,23.75c-1.35,0-1.59,2.1-.23,2.1S13.55,23.75,12.19,23.75Z" fill="#3d1302"/><path d="M21.4,25.88c-1.35,0-1.59,2.1-.23,2.1S22.76,25.88,21.4,25.88Z" fill="#3d1302"/><path d="M40.83,46.1c-1.35,0-1.59,2.1-.23,2.1S42.18,46.1,40.83,46.1Z" fill="#3d1302"/><path d="M31.06,46.32c-1.35,0-1.59,2.1-.23,2.1S32.41,46.32,31.06,46.32Z" fill="#3d1302"/><path d="M33,38.35c-1.35,0-1.59,2.1-.23,2.1S34.32,38.35,33,38.35Z" fill="#3d1302"/><path d="M38.47,34.76c-1.35,0-1.59,2.1-.23,2.1S39.83,34.76,38.47,34.76Z" fill="#3d1302"/><path d="M39.14,40.15c-1.35,0-1.58,2.1-.23,2.1S40.5,40.15,39.14,40.15Z" fill="#3d1302"/><path d="M30.05,38c-1.35,0-1.59,2.1-.23,2.1S31.4,38,30.05,38Z" fill="#3d1302"/><path d="M21.41,32.45c-1.35,0-1.59,2.1-.23,2.1S22.77,32.45,21.41,32.45Z" fill="#3d1302"/><path d="M58.45,36.44c-1.35,0-1.59,2.1-.23,2.1S59.8,36.44,58.45,36.44Z" fill="#3d1302"/><path d="M47.34,52.27c-1.35,0-1.59,2.11-.23,2.11S48.7,52.27,47.34,52.27Z" fill="#3d1302"/><path d="M65.76,51.71c-1.35,0-1.59,2.1-.23,2.1S67.12,51.71,65.76,51.71Z" fill="#3d1302"/><path d="M85.64,45c-1.35,0-1.59,2.11-.23,2.11S87,45,85.64,45Z" fill="#3d1302"/><path d="M76,40.48c-1.35,0-1.59,2.1-.23,2.1S77.34,40.48,76,40.48Z" fill="#3d1302"/><path d="M84.18,34.19c-1.35,0-1.59,2.1-.23,2.1S85.53,34.19,84.18,34.19Z" fill="#3d1302"/><path d="M89.45,34.19c-1.34,0-1.58,2.1-.22,2.1S90.81,34.19,89.45,34.19Z" fill="#3d1302"/><path d="M79.91,27.12c-1.35,0-1.59,2.1-.23,2.1S81.27,27.12,79.91,27.12Z" fill="#3d1302"/><path d="M83.05,20.16c-1.34,0-1.58,2.1-.23,2.1S84.41,20.16,83.05,20.16Z" fill="#3d1302"/><path d="M76.2,18.36c-1.35,0-1.58,2.1-.23,2.1S77.56,18.36,76.2,18.36Z" fill="#3d1302"/><path d="M76.09,10.5c-1.35,0-1.59,2.1-.23,2.1S77.45,10.5,76.09,10.5Z" fill="#3d1302"/><path d="M75.18,3.13c-1.35,0-1.59,2.1-.23,2.1S76.54,3.13,75.18,3.13Z" fill="#3d1302"/><path d="M68.45,16.67c-1.34,0-1.58,2.11-.23,2.11S69.81,16.67,68.45,16.67Z" fill="#3d1302"/><path d="M59.47,8.36c-1.35,0-1.59,2.1-.23,2.1S60.83,8.36,59.47,8.36Z" fill="#3d1302"/><path d="M85.74,11.06c-1.34,0-1.58,2.1-.22,2.1S87.1,11.06,85.74,11.06Z" fill="#3d1302"/><path d="M90.8,20.94c-1.35,0-1.58,2.1-.22,2.1S92.16,20.94,90.8,20.94Z" fill="#3d1302"/><path d="M90.8,14.77c-1.35,0-1.58,2.1-.22,2.1S92.16,14.77,90.8,14.77Z" fill="#3d1302"/><path d="M17.71,15.92c-1.35,0-1.58,2.1-.22,2.1S19.07,15.92,17.71,15.92Z" fill="#3d1302"/><path d="M58.44,1c-1.35,0-1.58,2.11-.22,2.11S59.8,1,58.44,1Z" fill="#3d1302"/><path d="M67.92,4.66c-1.35,0-1.58,2.1-.22,2.1S69.28,4.66,67.92,4.66Z" fill="#3d1302"/><path d="M78.11,34.64c-1.35,0-1.58,2.1-.22,2.1S79.47,34.64,78.11,34.64Z" fill="#3d1302"/><path d="M92.62,41.2c-1.34,0-1.57,2.1-.21,2.1S94,41.2,92.62,41.2Z" fill="#3d1302"/><path d="M70.69,47.78c-1.34,0-1.57,2.1-.21,2.1S72.05,47.78,70.69,47.78Z" fill="#3d1302"/><path d="M61.15,42.67c-1.35,0-1.58,2.1-.22,2.1S62.51,42.67,61.15,42.67Z" fill="#3d1302"/><path d="M56.43,52.61c-1.35,0-1.58,2.1-.22,2.1S57.79,52.61,56.43,52.61Z" fill="#3d1302"/><path d="M40,49.8c-1.34,0-1.57,2.1-.21,2.1S41.39,49.8,40,49.8Z" fill="#3d1302"/><path d="M23.41,43c-1.34,0-1.57,2.1-.21,2.1S24.77,43,23.41,43Z" fill="#3d1302"/><path d="M53,41.2c-1.35,0-1.58,2.1-.22,2.1S54.4,41.2,53,41.2Z" fill="#3d1302"/><path d="M95.64,34.19c-1.35,0-1.58,2.1-.22,2.1S97,34.19,95.64,34.19Z" fill="#3d1302"/><path d="M95.64,26.58c-1.35,0-1.58,2.1-.22,2.1S97,26.58,95.64,26.58Z" fill="#3d1302"/></g></svg>