<svg xmlns="http://www.w3.org/2000/svg" viewBox="0 0 109.33 76.28"><path d="M1.71,38.14c0,25.78,23.9,38.14,53.37,38.14S108.45,64,108.45,38.14,84.56,0,55.08,0,1.71,12.36,1.71,38.14ZM38,35.64c0-4.13,7.63-7.49,17-7.49s17,3.36,17,7.49-7.63,7.49-17,7.49S38,39.77,38,35.64Z" fill="#f98b06"/><path d="M39.17,28.62c2.81.56,5.61-.67,8.36-1.46a28,28,0,0,1,15.6.08c2.1.63,4.33,1.52,6.42.85a5.4,5.4,0,0,0,2.78-2.25c.45-.68.78-2.58,1.59-2.86,1.87-.64,1.89,5.9,1.78,7a6.92,6.92,0,0,1-1.81,4.46,5.63,5.63,0,0,1-1.77,1.11c-.08-4.1-7.68-7.42-17-7.42s-17,3.36-17,7.49c0,.06,0,.11,0,.16a9.5,9.5,0,0,1-3.14-1.63,10.09,10.09,0,0,1-3.28-5.85,26.3,26.3,0,0,1-.23-6.81C33.28,24.6,35.62,27.91,39.17,28.62Z" fill="#ce6f06"/><path d="M1.71,38.14A39.62,39.62,0,0,0,2,43.21c1.11.11,2.28-.62,3.43-.92a6.54,6.54,0,0,1,6,2.06,22.65,22.65,0,0,1,3.59,5.58c2.4,4.57,5.28,9,9.33,12.21s9.47,5,14.48,3.77c4.08-1,7.71-3.93,11.91-3.84,4.74.1,8.72,4,13.45,4.25,7.28.34,12.18-7.84,19.27-9.53,4.56-1.08,10,.51,13.62-2.48,3.34-2.77,3.4-8.25,6.82-10.92,1.38-1.08,3.19-1.59,4.34-2.91a1.13,1.13,0,0,0,.1-.13c0-.72.06-1.46.06-2.21Z" fill="#ce6f06"/><path d="M64.33,73.49c28.46-2.3,44.12-17.48,44.05-37.74.05.78.07,1.58.07,2.39,0,25.82-23.89,38.14-53.37,38.14S1.71,63.92,1.71,38.14c0-.81,0-1.61.07-2.39C8.89,61.85,35.55,75.82,64.33,73.49Z" fill="#ce6f06"/><path d="M1.39,41.14c1.29.58,2.71-.39,4.08-.75a6.51,6.51,0,0,1,6,2.06A22.41,22.41,0,0,1,15.07,48c2.4,4.57,5.28,9,9.33,12.22s9.47,5,14.48,3.76c4.08-1,7.71-3.92,11.91-3.83,4.74.1,8.72,4,13.45,4.24,7.28.34,12.18-7.83,19.27-9.52,4.56-1.09,10,.5,13.62-2.49,3.34-2.76,3.4-8.25,6.82-10.92,1.38-1.07,3.19-1.58,4.34-2.9,1.85-2.13.79-5.28.16-8C103,6.62,78.9-.17,55.08,0,31.63.18,8.41,7,3.38,24A51.35,51.35,0,0,0,.07,37.06C-.11,38.59,0,40.51,1.39,41.14ZM33.88,25.6c0-1.85,1.77-2.52,3.32-2.53s3.06.68,4.6.58c3.25-.22,5.67-3.79,8.82-4.75,5-1.52,9.84,3.78,14.95,3.23,1.65-.18,3.28-1,4.91-.65a3.14,3.14,0,0,1,2.69,4.12C70,36.73,33.88,35.87,33.88,25.6Z" fill="#f4d3a2"/><path d="M6.78,37.21c4-.14,7.57,2.59,9.9,5.83s3.72,7.05,5.73,10.5,4.89,6.71,8.76,7.68c8.17,2.06,16-6.79,24.28-5.13,4.47.89,8.45,4.81,12.9,3.83,3.62-.8,5.71-4.48,8.51-6.92A14.28,14.28,0,0,1,87.8,49.63c3.45.41,7.53,1.89,10-.6,2.23-2.28,1.18-6.35,3-8.94a9.32,9.32,0,0,1,4.2-2.73,9.2,9.2,0,0,0,4.18-2.77.75.75,0,0,0,.07-.12,5.06,5.06,0,0,1-1,4.11c-1.15,1.32-3,1.83-4.34,2.9-3.42,2.67-3.48,8.16-6.82,10.92-3.62,3-9.06,1.4-13.62,2.49-7.09,1.69-12,9.86-19.27,9.52-4.73-.22-8.71-4.14-13.45-4.24C46.59,60.08,43,63,38.88,64c-5,1.24-10.42-.56-14.48-3.76S17.47,52.59,15.07,48a22.41,22.41,0,0,0-3.59-5.57,6.51,6.51,0,0,0-6-2.06c-1.37.36-2.79,1.33-4.08.75C.28,40.64,0,39.33,0,38.06a6.61,6.61,0,0,0,.76,0C2.79,38.09,4.75,37.28,6.78,37.21Z" fill="#efc184"/><path d="M84.57,45.89c-.27.42.31,1.4,1.77,2.44a9.57,9.57,0,0,0,2.92,1.36,9,9,0,0,0,4.18.14,7.37,7.37,0,0,0,3.87-2.11,6,6,0,0,0,1.59-3.24,3.89,3.89,0,0,0-.33-2.36c-.28-.51-.61-.69-.84-.62-.51.16-.63,1.15-1.32,2.2A5.55,5.55,0,0,1,95,45.23a6.06,6.06,0,0,1-2.3,1A12.88,12.88,0,0,1,87.41,46C85.92,45.63,84.84,45.45,84.57,45.89Z" fill="#fff2d7"/><path d="M61.82,53.74c-.19.17-.19.53,0,1a6.15,6.15,0,0,0,1.19,2,6.63,6.63,0,0,0,1.31,1.15,5.9,5.9,0,0,0,2,.83A5.16,5.16,0,0,0,69,58.63a4.41,4.41,0,0,0,1.37-.72,5.13,5.13,0,0,0,1-1.06A13.29,13.29,0,0,0,72.47,55a14.33,14.33,0,0,1,.79-1.34,19.5,19.5,0,0,1,1.67-2.14c1.07-1.19,1.9-2,1.7-2.45s-1.45-.54-3.24.34a9.93,9.93,0,0,0-2.78,2.11,11,11,0,0,0-1.28,1.67c-.37.61-.66,1.15-.92,1.49a1.62,1.62,0,0,1-.64.57,2.12,2.12,0,0,1-1,.17,3.66,3.66,0,0,1-1.09-.18,7.79,7.79,0,0,1-1.07-.45c-.69-.35-1.3-.73-1.79-.93S62,53.57,61.82,53.74Z" fill="#fff2d7"/><path d="M19.52,43.77c-.41.3.12,1.83,1.32,4.08.59,1.12,1.36,2.42,2.25,3.83q.68,1.07,1.44,2.19c.51.76,1,1.51,1.64,2.34a13.1,13.1,0,0,0,2.2,2.35,7.77,7.77,0,0,0,2.95,1.49,8.4,8.4,0,0,0,2.86.2,10.42,10.42,0,0,0,2.26-.48,10.86,10.86,0,0,0,2.86-1.38c.61-.44.9-.8.81-1S39.58,57,38.85,57s-1.73.13-2.9.18a9.12,9.12,0,0,1-3.65-.41,5.16,5.16,0,0,1-1.61-1A12.18,12.18,0,0,1,29.12,54c-.57-.75-1.12-1.5-1.65-2.21s-1.09-1.42-1.61-2.07c-1-1.3-2-2.44-2.9-3.37C21.22,44.47,19.94,43.47,19.52,43.77Z" fill="#fff2d7"/><path d="M28.59,36.75c5.62,7.61-19.68-3.47-9.21-20.57A23,23,0,0,1,30.17,6.87,70.53,70.53,0,0,1,50,2.1c3-.29,5.94-.44,8.75-.44A74.68,74.68,0,0,1,74.87,3.38a44.8,44.8,0,0,1,13.21,5l0,0,.05,0c3.72,2.42,8.18,6,9.6,12l0,.14,0,.13,0,.36A11.47,11.47,0,0,1,98,23.76a14.79,14.79,0,0,1-4.09,8.92v0h0a24.88,24.88,0,0,1-5.25,4.14,42.61,42.61,0,0,1-9.34,4.06h0a47.79,47.79,0,0,1-13.61,2.21H65.4a17.11,17.11,0,0,1-4.39-.5c-2.74-.76-3.26-2.34-3.32-3.22-.23-2.87,3.23-4.15,4.9-4.76l.31-.12c1-.41,2-.81,2.92-1.19l2.63-1.08c4.31-1.81,18-11.29,3-14a99.21,99.21,0,0,0-17.58-1.76c-1,0-1.94,0-2.93,0-6,.16-12.42,1.19-17.07,3.37C29.53,22,23,29.15,28.59,36.75Z" fill="#f9e4c2"/><path d="M29,21.22c.22.12.62,0,1.14-.42l.42-.32.51-.38c.36-.27.73-.6,1.21-.92l.72-.53c.26-.17.55-.34.83-.53.55-.39,1.23-.73,1.89-1.13a36.66,36.66,0,0,1,4.95-2.14,49.65,49.65,0,0,1,13.92-2.54,52.55,52.55,0,0,1,8.35.27,38.79,38.79,0,0,1,8.53,1.84,20.46,20.46,0,0,1,7,3.89,10,10,0,0,1,2.08,2.53,4.56,4.56,0,0,1,.61,2.35c-.06,1.53-1.19,3.43-2.7,5a28.61,28.61,0,0,1-5,4,65.44,65.44,0,0,1-8.63,4.6c-2.14,1-3.39,1.57-3.34,2.1s1.49.88,4,.69A31.56,31.56,0,0,0,76,36.74a28.55,28.55,0,0,0,6.63-4.09,17.22,17.22,0,0,0,3.21-3.48A12.12,12.12,0,0,0,88,23.89a11.3,11.3,0,0,0-1-6.16A16.3,16.3,0,0,0,83.46,13a25.9,25.9,0,0,0-9.58-5.61A41.61,41.61,0,0,0,63.6,5.36,50.57,50.57,0,0,0,54,5.52a43.26,43.26,0,0,0-15.48,4.55,29,29,0,0,0-5.23,3.55,20,20,0,0,0-1.84,1.86c-.26.31-.51.59-.73.88l-.6.87a10,10,0,0,0-.84,1.54,5.79,5.79,0,0,0-.28.65q-.09.31-.15.57C28.73,20.69,28.76,21.09,29,21.22Z" fill="#fff2d7"/><path d="M18.58,16.32c.85-1.14,1.72-1.51,2.13-1.22s.38,1.13.28,2.22a23.88,23.88,0,0,0-.12,4,24,24,0,0,0,.69,3.93c.25,1.07.42,1.89,0,2.24s-1.28.1-2.28-.9a8.34,8.34,0,0,1-.74-10.26Z" fill="#fff"/><path d="M23.67,30.26c.44-.28,1.22.12,2.23.79s2.29,1.61,3.74,2.56S32.47,35.34,33.5,36s1.71,1.21,1.63,1.72-1,.85-2.38.78A9.1,9.1,0,0,1,30.34,38a12,12,0,0,1-2.71-1.31,12.45,12.45,0,0,1-2.3-1.94,9.44,9.44,0,0,1-1.41-2C23.28,31.48,23.25,30.53,23.67,30.26Z" fill="#fff"/><path d="M41.64,36.75c2.3.15,4.12,1.1,4,2.12s-2,1.72-4.29,1.57-4.12-1.11-4-2.12S39.34,36.6,41.64,36.75Z" fill="#fff"/><path d="M38.43,21.37c1.71-.09,3.48.15,5.1-.42,1.94-.68,3.35-2.41,5.21-3.3,2.51-1.2,5.54-.69,8,.55,1.55.76,3,1.8,4.73,2,2.13.28,4.18-.73,6.25-1.29s4.67-.45,5.85,1.37a4.35,4.35,0,0,1,0,4.2c-.13.27-.26.53-.4.77a3.12,3.12,0,0,0-2.75-3.81c-1.63-.31-3.26.47-4.91.65-5.11.55-10-4.75-14.95-3.23-3.15,1-5.57,4.53-8.82,4.75-1.54.1-3-.59-4.6-.58s-3.32.68-3.32,2.53c0,.06,0,.12,0,.18a3.17,3.17,0,0,1,.19-2.14C34.83,22.07,36.72,21.47,38.43,21.37Z" fill="#efc184"/><path d="M80.73,39.32a1.79,1.79,0,0,0,1.27-.8,3.39,3.39,0,0,0,.26-3.37,1.76,1.76,0,0,0-1.13-1,1.5,1.5,0,0,0-1.44.51,3.29,3.29,0,0,0-.3,3.92A1.52,1.52,0,0,0,80.73,39.32Z" fill="#77300c"/><path d="M35.5,5.33c-1-.3-2.25,1-3,2.79s-.71,3.62.2,4.08,2.43-.72,3.22-2.69S36.47,5.63,35.5,5.33Z" fill="#77300c"/><path d="M76.08,13.25a1.77,1.77,0,0,0,.51-1.68c-.2-.47-.83-.71-1.69-.64a6.65,6.65,0,0,0-5.08,3.6c-.35.8-.32,1.47.05,1.81a1.79,1.79,0,0,0,1.76.08,9.64,9.64,0,0,0,2.42-1.3A9.59,9.59,0,0,0,76.08,13.25Z" fill="#77300c"/><path d="M48.46,8.41c-1-.07-1.92,1-2,2.37s.65,2.57,1.67,2.64,1.92-1,2-2.37S49.48,8.48,48.46,8.41Z" fill="#77300c"/><path d="M96.76,23.33c0-1-1.35-1.82-3-1.9s-3,.6-3.12,1.61,1.19,2,2.94,2.08S96.78,24.35,96.76,23.33Z" fill="#77300c"/><path d="M65,48a2.65,2.65,0,0,0-3-1.74,1.54,1.54,0,0,0-1.11,1A1.89,1.89,0,0,0,61,48.7a2.37,2.37,0,0,0,1,1.09,2.45,2.45,0,0,0,1.44.31,1.94,1.94,0,0,0,1.3-.63A1.54,1.54,0,0,0,65,48Z" fill="#77300c"/><path d="M9.65,20.59a2,2,0,0,0-1.41-.54A1.41,1.41,0,0,0,7.1,21.14,3.58,3.58,0,0,0,9,25.22,1.42,1.42,0,0,0,10.57,25a1.91,1.91,0,0,0,.5-1.42A4.07,4.07,0,0,0,10.68,22,4,4,0,0,0,9.65,20.59Z" fill="#77300c"/><path d="M38.68,34.24c-.57-1.5-1.8-2.42-2.76-2.06s-1.26,1.88-.69,3.38S37,38,38,37.61,39.25,35.74,38.68,34.24Z" fill="#77300c"/><path d="M39.83,51.74a2.2,2.2,0,0,0-1.58,2.63c.14,1.35,1.08,2.36,2.09,2.25A2.2,2.2,0,0,0,41.92,54C41.78,52.64,40.84,51.63,39.83,51.74Z" fill="#77300c"/><path d="M61,7.53A4,4,0,0,0,62.2,5.45a1.51,1.51,0,0,0-.47-1.53,1.69,1.69,0,0,0-1.56-.12,4.47,4.47,0,0,0-1.73,1.1,4.43,4.43,0,0,0-1.13,1.71,1.69,1.69,0,0,0,.09,1.56,1.49,1.49,0,0,0,1.52.49A3.9,3.9,0,0,0,61,7.53Z" fill="#a05522"/><ellipse cx="24.58" cy="11.79" rx="1.85" ry="2.03" transform="translate(-2.26 16.54) rotate(-35.67)" fill="#a05522"/><path d="M80.3,8.59a1.82,1.82,0,0,0,.59-1.35,2.86,2.86,0,0,0-.42-1.57,2.81,2.81,0,0,0-1.21-1.09,1.8,1.8,0,0,0-1.47-.08,1.52,1.52,0,0,0-.89,1.2,2.78,2.78,0,0,0,.41,1.9,2.81,2.81,0,0,0,1.51,1.24A1.54,1.54,0,0,0,80.3,8.59Z" fill="#a05522"/><path d="M89.62,41.89c-.36-1-2.27-1.14-4.27-.4s-3.33,2.12-3,3.08,2.26,1.13,4.26.39S90,42.85,89.62,41.89Z" fill="#a05522"/><path d="M85.4,15.78C85.87,17.28,87,18.25,88,18s1.39-1.76.93-3.26-1.63-2.47-2.61-2.17S84.94,14.28,85.4,15.78Z" fill="#a05522"/><path d="M58.48,38.9c-1.63,1.43-2.41,3.21-1.74,4s2.55.23,4.18-1.21,2.41-3.21,1.73-4S60.11,37.46,58.48,38.9Z" fill="#a05522"/><path d="M65.16,52.71c-1,1.1-1.24,2.55-.49,3.24s2.18.38,3.2-.72,1.24-2.55.49-3.24S66.18,51.62,65.16,52.71Z" fill="#a05522"/><path d="M97,32.46a1.75,1.75,0,1,0,2.47.61A1.8,1.8,0,0,0,97,32.46Z" fill="#a05522"/><path d="M79.6,26.39a2.14,2.14,0,0,0,1.36.35,1.81,1.81,0,0,0,1.15-.5,1.77,1.77,0,0,0,.48-1.16,2.08,2.08,0,0,0-.37-1.35A1.61,1.61,0,0,0,81,23a2,2,0,0,0-1.49.61,2,2,0,0,0-.6,1.51A1.64,1.64,0,0,0,79.6,26.39Z" fill="#a05522"/><path d="M27,19.54c-.8,1.17-.77,2.58.07,3.16s2.18.1,3-1.07.77-2.58-.07-3.16S27.79,18.37,27,19.54Z" fill="#a05522"/><path d="M16.92,28.09c-.71-.74-2.25-.4-3.43.75s-1.57,2.68-.86,3.41,2.25.4,3.44-.76S17.63,28.82,16.92,28.09Z" fill="#a05522"/><path d="M28.09,44.66a2.4,2.4,0,0,0-1,2.87,1.54,1.54,0,0,0,1.33.74,3,3,0,0,0,1.92-.66,3,3,0,0,0,1.16-1.67,1.53,1.53,0,0,0-.34-1.48A2.42,2.42,0,0,0,28.09,44.66Z" fill="#a05522"/><path d="M17.14,35.76a2.18,2.18,0,0,0-1.71,2.48,2.16,2.16,0,0,0,2,2.27A2.15,2.15,0,0,0,19.12,38,2.16,2.16,0,0,0,17.14,35.76Z" fill="#a05522"/><path d="M45.18,42.14c-1.06-.88-2.45-1-3.1-.16s-.31,2.13.74,3,2.45.94,3.1.15S46.24,43,45.18,42.14Z" fill="#a05522"/><path d="M50.72,40.88a2.19,2.19,0,0,0-2.8-3.29,2.19,2.19,0,0,0,2.8,3.29Z" fill="#a05522"/><path d="M48.86,50c-1.45,1.31-1.83,3.06-1,3.71s2.3.14,3.54-1,1.88-2.58,1.3-3.42S50.3,48.72,48.86,50Z" fill="#a05522"/><path d="M69.44,43.2c-.59.84.14,2.37,1.5,3.57s3,1.73,3.73,1,.25-2.46-1.29-3.81S70,42.37,69.44,43.2Z" fill="#a05522"/></svg>