<svg xmlns="http://www.w3.org/2000/svg" viewBox="0 0 109.33 76.86"><path d="M1.71,38.73c0,25.78,23.9,38.13,53.37,38.13s53.37-12.31,53.37-38.13S84.56.59,55.08.59,1.71,13,1.71,38.73ZM38,36.23c0-4.14,7.63-7.49,17-7.49s17,3.35,17,7.49-7.63,7.48-17,7.48S38,40.36,38,36.23Z" fill="#fcc659"/><path d="M39.17,29.21c2.81.56,5.61-.67,8.36-1.46a27.87,27.87,0,0,1,15.6.08c2.1.63,4.33,1.51,6.42.84a5.34,5.34,0,0,0,2.78-2.24c.45-.68.78-2.59,1.59-2.86,1.87-.64,1.89,5.89,1.78,7a6.92,6.92,0,0,1-1.81,4.46,5.63,5.63,0,0,1-1.77,1.11c-.08-4.1-7.68-7.42-17-7.42s-17,3.35-17,7.49c0,.05,0,.11,0,.16a9.5,9.5,0,0,1-3.14-1.63,10.09,10.09,0,0,1-3.28-5.85,26.37,26.37,0,0,1-.23-6.82C33.28,25.18,35.62,28.5,39.17,29.21Z" fill="#ffa325"/><path d="M1.71,38.73A39.62,39.62,0,0,0,2,43.8c1.11.1,2.28-.62,3.43-.92a6.51,6.51,0,0,1,6,2.06,22.41,22.41,0,0,1,3.59,5.57c2.4,4.57,5.28,9,9.33,12.22s9.47,5,14.48,3.76c4.08-1,7.71-3.92,11.91-3.83,4.74.1,8.72,4,13.45,4.25,7.28.34,12.18-7.84,19.27-9.53,4.56-1.09,10,.51,13.62-2.48,3.34-2.77,3.4-8.25,6.82-10.92,1.38-1.08,3.19-1.59,4.34-2.91a1.13,1.13,0,0,0,.1-.13c0-.73.06-1.46.06-2.21Z" fill="#ffa325"/><path d="M64.33,74.08c28.46-2.3,44.12-17.48,44.05-37.75.05.79.07,1.59.07,2.4,0,25.82-23.89,38.13-53.37,38.13S1.71,64.51,1.71,38.73c0-.81,0-1.61.07-2.4C8.89,62.44,35.55,76.41,64.33,74.08Z" fill="#ffa325"/><path d="M1.39,41.72c1.29.59,2.71-.39,4.08-.74a6.49,6.49,0,0,1,6,2.06,22.41,22.41,0,0,1,3.59,5.57c2.4,4.57,5.28,9,9.33,12.21s9.47,5,14.48,3.77c4.08-1,7.71-3.93,11.91-3.84,4.74.1,8.72,4,13.45,4.25,7.28.34,12.18-7.84,19.27-9.52,4.56-1.09,10,.5,13.62-2.49,3.34-2.76,3.4-8.25,6.82-10.92,1.38-1.07,3.19-1.58,4.34-2.9,1.85-2.14.79-5.28.16-8C103,7.21,78.9.42,55.08.59c-23.45.17-46.67,7-51.7,24A51.24,51.24,0,0,0,.07,37.65C-.11,39.17,0,41.09,1.39,41.72ZM33.88,26.19c0-1.85,1.77-2.52,3.32-2.54s3.06.69,4.6.59c3.25-.22,5.67-3.79,8.82-4.75,5-1.52,9.84,3.78,14.95,3.23,1.65-.18,3.28-1,4.91-.65a3.14,3.14,0,0,1,2.69,4.12C70,37.32,33.88,36.46,33.88,26.19Z" fill="#f75295"/><path d="M6.78,37.8c4-.14,7.57,2.58,9.9,5.83s3.72,7,5.73,10.5,4.89,6.71,8.76,7.68c8.17,2,16-6.79,24.28-5.14,4.47.9,8.45,4.81,12.9,3.83,3.62-.8,5.71-4.48,8.51-6.91A14.29,14.29,0,0,1,87.8,50.21c3.45.42,7.53,1.89,10-.59,2.23-2.29,1.18-6.35,3-8.94a9.42,9.42,0,0,1,4.2-2.74,9.18,9.18,0,0,0,4.18-2.76.54.54,0,0,0,.07-.13,5.07,5.07,0,0,1-1,4.12c-1.15,1.32-3,1.83-4.34,2.9-3.42,2.67-3.48,8.16-6.82,10.92-3.62,3-9.06,1.4-13.62,2.49-7.09,1.68-12,9.86-19.27,9.52-4.73-.22-8.71-4.15-13.45-4.25-4.2-.09-7.83,2.83-11.91,3.84-5,1.24-10.42-.57-14.48-3.77s-6.93-7.64-9.33-12.21A22.41,22.41,0,0,0,11.48,43a6.49,6.49,0,0,0-6-2.06c-1.37.35-2.79,1.33-4.08.74C.28,41.22,0,39.92,0,38.64a3.94,3.94,0,0,0,.76,0C2.79,38.68,4.75,37.87,6.78,37.8Z" fill="#ef227f"/><path d="M84.57,46.48c-.27.42.31,1.4,1.77,2.44a9.57,9.57,0,0,0,2.92,1.36,9,9,0,0,0,4.18.14,7.37,7.37,0,0,0,3.87-2.11,6,6,0,0,0,1.59-3.24,3.91,3.91,0,0,0-.33-2.37c-.28-.5-.61-.68-.84-.61-.51.15-.63,1.15-1.32,2.2A5.69,5.69,0,0,1,95,45.82a6.22,6.22,0,0,1-2.3,1,12.87,12.87,0,0,1-5.27-.27C85.92,46.22,84.84,46,84.57,46.48Z" fill="#ff6ea6"/><path d="M61.82,54.33c-.19.17-.19.53,0,1.05a6.58,6.58,0,0,0,2.5,3.13,5.72,5.72,0,0,0,2,.84A5.16,5.16,0,0,0,69,59.22a4.63,4.63,0,0,0,1.37-.72,5.39,5.39,0,0,0,1-1.06,13.88,13.88,0,0,0,1.09-1.88,14.33,14.33,0,0,1,.79-1.34,19.68,19.68,0,0,1,1.67-2.15c1.07-1.19,1.9-2,1.7-2.45s-1.45-.53-3.24.35a9.74,9.74,0,0,0-2.78,2.11,11,11,0,0,0-1.28,1.67c-.37.61-.66,1.14-.92,1.49a1.62,1.62,0,0,1-.64.57,2.43,2.43,0,0,1-1,.17,4,4,0,0,1-1.09-.18,6.76,6.76,0,0,1-1.07-.46c-.69-.34-1.3-.72-1.79-.93S62,54.16,61.82,54.33Z" fill="#ff6ea6"/><path d="M19.52,44.36c-.41.29.12,1.83,1.32,4.08.59,1.12,1.36,2.42,2.25,3.83q.68,1.06,1.44,2.19c.51.76,1,1.51,1.64,2.34a13.1,13.1,0,0,0,2.2,2.35,7.77,7.77,0,0,0,2.95,1.49,8.66,8.66,0,0,0,2.86.2,11.75,11.75,0,0,0,2.26-.48A10.83,10.83,0,0,0,39.3,59c.61-.43.9-.8.81-1s-.53-.34-1.26-.33-1.73.12-2.9.18a9.12,9.12,0,0,1-3.65-.41,5.16,5.16,0,0,1-1.61-1,12.72,12.72,0,0,1-1.57-1.8l-1.65-2.22c-.55-.72-1.09-1.41-1.61-2.06-1-1.3-2-2.45-2.9-3.37C21.22,45.06,19.94,44.06,19.52,44.36Z" fill="#ff6ea6"/><path d="M28.59,37.34C34.21,45,8.91,33.87,19.38,16.77A22.94,22.94,0,0,1,30.17,7.46,70.19,70.19,0,0,1,50,2.69c3-.29,5.94-.44,8.75-.44A74.68,74.68,0,0,1,74.87,4,44.52,44.52,0,0,1,88.08,9l0,0,.05,0c3.72,2.42,8.18,6,9.6,12l0,.14,0,.13,0,.36A11.45,11.45,0,0,1,98,24.35a14.82,14.82,0,0,1-4.09,8.92v0h0a24.88,24.88,0,0,1-5.25,4.14,43.1,43.1,0,0,1-9.34,4.06h0a47.69,47.69,0,0,1-13.61,2.2H65.4A17.52,17.52,0,0,1,61,43.2c-2.74-.76-3.26-2.34-3.32-3.21-.23-2.87,3.23-4.15,4.9-4.76l.31-.12,2.92-1.2,2.63-1.07c4.31-1.82,18-11.29,3-14a98.28,98.28,0,0,0-17.58-1.76l-2.93,0c-6,.17-12.42,1.2-17.07,3.37C29.53,22.56,23,29.73,28.59,37.34Z" fill="#ff6ea6"/><path d="M29,21.81c.22.12.62,0,1.14-.42a5,5,0,0,0,.42-.33l.51-.37c.36-.27.73-.61,1.21-.92l.72-.53c.26-.18.55-.35.83-.53.55-.39,1.23-.73,1.89-1.13a36.66,36.66,0,0,1,4.95-2.14A49.65,49.65,0,0,1,54.58,12.9a52.51,52.51,0,0,1,8.35.26A39.39,39.39,0,0,1,71.46,15a20.44,20.44,0,0,1,7,3.88,10.16,10.16,0,0,1,2.08,2.54,4.53,4.53,0,0,1,.61,2.34c-.06,1.54-1.19,3.43-2.7,5a27.7,27.7,0,0,1-5,4,64.52,64.52,0,0,1-8.63,4.61c-2.14,1-3.39,1.57-3.34,2.1s1.49.88,4,.69A31.63,31.63,0,0,0,76,37.32a28.15,28.15,0,0,0,6.63-4.08,17.56,17.56,0,0,0,3.21-3.49A12,12,0,0,0,88,24.48a11.3,11.3,0,0,0-1-6.16,16.35,16.35,0,0,0-3.45-4.7A26,26,0,0,0,73.88,8,41.15,41.15,0,0,0,63.6,6,49.75,49.75,0,0,0,54,6.11a43.26,43.26,0,0,0-15.48,4.55,29,29,0,0,0-5.23,3.54,21.4,21.4,0,0,0-1.84,1.87c-.26.3-.51.59-.73.88l-.6.87a9.58,9.58,0,0,0-.84,1.54A6.6,6.6,0,0,0,29,20c-.06.21-.11.41-.15.58C28.73,21.27,28.76,21.68,29,21.81Z" fill="#ff83b3"/><path d="M18.58,16.91c.85-1.14,1.72-1.51,2.13-1.23s.38,1.13.28,2.23a23.84,23.84,0,0,0-.12,4,24.19,24.19,0,0,0,.69,3.93c.25,1.07.42,1.89,0,2.24s-1.28.1-2.28-.9a8.34,8.34,0,0,1-.74-10.26Z" fill="#fff"/><path d="M23.67,30.85c.44-.28,1.22.12,2.23.79s2.29,1.61,3.74,2.56,2.83,1.72,3.86,2.38,1.71,1.2,1.63,1.72-1,.85-2.38.78a9.52,9.52,0,0,1-2.41-.47,11.94,11.94,0,0,1-5-3.26,9.16,9.16,0,0,1-1.41-2C23.28,32.07,23.25,31.12,23.67,30.85Z" fill="#fff"/><path d="M41.64,37.34c2.3.15,4.12,1.1,4,2.12s-2,1.72-4.29,1.56-4.12-1.1-4-2.12S39.34,37.18,41.64,37.34Z" fill="#fff"/><path d="M38.43,22c1.71-.09,3.48.15,5.1-.42,1.94-.68,3.35-2.41,5.21-3.3,2.51-1.2,5.54-.69,8,.54,1.55.77,3,1.81,4.73,2,2.13.29,4.18-.72,6.25-1.28s4.67-.45,5.85,1.37a4.35,4.35,0,0,1,0,4.2c-.13.27-.26.52-.4.77a3.11,3.11,0,0,0-2.75-3.81c-1.63-.32-3.26.47-4.91.65-5.11.55-10-4.75-14.95-3.23-3.15,1-5.57,4.53-8.82,4.75-1.54.1-3-.6-4.6-.59s-3.32.69-3.32,2.54c0,.06,0,.12,0,.18a3.16,3.16,0,0,1,.19-2.14C34.83,22.66,36.72,22.06,38.43,22Z" fill="#ef227f"/><rect x="52.39" y="2.61" width="1.56" height="5.08" rx="0.69" transform="matrix(0.18, -0.98, 0.98, 0.18, 38.31, 56.46)" fill="#542501"/><rect x="49.23" y="11.87" width="5.08" height="1.56" rx="0.69" transform="translate(0.61 27.58) rotate(-30)" fill="#542501"/><rect x="41.25" y="7.1" width="1.56" height="5.08" rx="0.69" transform="translate(-0.54 2.77) rotate(-3.75)" fill="#542501"/><rect x="94.09" y="24.37" width="5.08" height="1.56" rx="0.69" transform="translate(26.51 96.23) rotate(-59.98)" fill="#542501"/><rect x="64.86" y="14.48" width="5.08" height="1.56" rx="0.69" transform="translate(1.4 35.74) rotate(-30)" fill="#542501"/><rect x="33.78" y="9.16" width="1.56" height="5.08" rx="0.69" transform="translate(-0.94 3.26) rotate(-5.34)" fill="#542501"/><rect x="65.67" width="1.56" height="5.08" rx="0.69" transform="translate(0.05 6.19) rotate(-5.34)" fill="#542501"/><rect x="43.82" width="1.56" height="5.08" rx="0.69" transform="translate(11.73 32.79) rotate(-45.89)" fill="#542501"/><rect x="75.5" y="3.26" width="5.08" height="1.56" rx="0.69" transform="translate(3.21 26.54) rotate(-19.69)" fill="#542501"/><rect x="88.53" y="7.64" width="1.56" height="5.08" rx="0.69" transform="translate(57.72 94.33) rotate(-75.92)" fill="#542501"/><rect x="100.73" y="16.34" width="1.56" height="5.08" rx="0.69" transform="translate(58.52 112.75) rotate(-75.93)" fill="#542501"/><rect x="60.78" y="6.81" width="1.56" height="5.08" rx="0.69" transform="translate(12.03 47.08) rotate(-45.94)" fill="#542501"/><rect x="75.18" y="9.16" width="1.56" height="5.08" rx="0.69" transform="translate(4.5 39.98) rotate(-30.34)" fill="#542501"/><rect x="79.92" y="25.15" width="1.56" height="5.08" rx="0.69" transform="translate(-2.22 7.62) rotate(-5.33)" fill="#542501"/><rect x="82.16" y="10.18" width="1.56" height="5.08" rx="0.69" transform="translate(-0.82 7.76) rotate(-5.33)" fill="#542501"/><rect x="87.34" y="23.5" width="1.56" height="5.08" rx="0.69" transform="translate(8.12 71.24) rotate(-45.94)" fill="#542501"/><rect x="89.23" y="16.7" width="5.08" height="1.56" rx="0.69" transform="translate(-0.52 31.94) rotate(-19.69)" fill="#542501"/><rect x="88.48" y="34.26" width="5.08" height="1.56" rx="0.69" transform="translate(-6.49 32.72) rotate(-19.69)" fill="#542501"/><rect x="77.26" y="16.99" width="1.56" height="5.08" rx="0.69" transform="translate(9.72 62.01) rotate(-45.92)" fill="#542501"/><rect x="100.49" y="28.46" width="5.08" height="1.56" rx="0.69" transform="translate(34.39 111.46) rotate(-65.99)" fill="#542501"/><rect x="61.78" y="39.71" width="1.56" height="5.08" rx="0.69" transform="translate(9.53 95.97) rotate(-79.41)" fill="#542501"/><rect x="16.08" y="35.45" width="1.56" height="5.08" rx="0.69" transform="translate(-23.58 47.58) rotate(-79.41)" fill="#542501"/><rect x="63.76" y="35.61" width="5.08" height="1.56" rx="0.69" transform="translate(-9.31 38.01) rotate(-29.99)" fill="#542501"/><rect x="72.92" y="35.22" width="1.56" height="5.08" rx="0.69" transform="translate(-2.31 4.9) rotate(-3.75)" fill="#542501"/><rect x="83.11" y="43.29" width="1.56" height="5.08" rx="0.69" transform="translate(-2.84 5.63) rotate(-3.78)" fill="#542501"/><rect x="55.4" y="48.95" width="5.08" height="1.56" rx="0.69" transform="translate(-14.11 75.02) rotate(-59.98)" fill="#542501"/><rect x="75.79" y="44.42" width="5.08" height="1.56" rx="0.69" transform="translate(0.02 90.43) rotate(-60)" fill="#542501"/><rect x="95.14" y="38.96" width="5.08" height="1.56" rx="0.69" transform="translate(-6.78 54.16) rotate(-30)" fill="#542501"/><rect x="67.91" y="48.66" width="1.56" height="5.08" rx="0.69" transform="translate(-14.67 70.99) rotate(-50.06)" fill="#542501"/><rect x="60.64" y="55.98" width="5.08" height="1.55" rx="0.69" transform="translate(-12.15 17.54) rotate(-14.43)" fill="#542501"/><rect x="84.95" y="36.63" width="1.56" height="5.08" rx="0.69" transform="translate(0.66 79.76) rotate(-50.06)" fill="#542501"/><rect x="32.29" y="28.08" width="1.56" height="5.08" rx="0.69" transform="translate(-2.7 3.21) rotate(-5.34)" fill="#542501"/><rect x="48.49" y="42.32" width="1.56" height="5.08" rx="0.69" transform="translate(-3.96 4.78) rotate(-5.34)" fill="#542501"/><rect x="40.71" y="30.61" width="1.56" height="5.08" rx="0.69" transform="translate(-11.19 39.88) rotate(-45.91)" fill="#542501"/><rect x="11.19" y="26.92" width="1.56" height="5.08" rx="0.69" transform="translate(-17.52 17.56) rotate(-45.92)" fill="#542501"/><rect x="27.89" y="55.82" width="5.08" height="1.56" rx="0.69" transform="translate(-17.3 13.57) rotate(-19.7)" fill="#542501"/><rect x="21.67" y="49.25" width="5.08" height="1.56" rx="0.69" transform="translate(-15.45 11.09) rotate(-19.7)" fill="#542501"/><rect x="49.36" y="54.12" width="1.56" height="5.08" rx="0.69" transform="translate(-25.38 52.05) rotate(-45)" fill="#542501"/><rect x="26.3" y="23.83" width="1.56" height="5.08" rx="0.69" transform="translate(-5.09 46.22) rotate(-75.92)" fill="#542501"/><rect x="33.78" y="44.05" width="1.56" height="5.08" rx="0.69" transform="translate(-19.04 68.78) rotate(-75.92)" fill="#542501"/><rect x="53.39" y="35.51" width="1.56" height="5.08" rx="0.69" transform="translate(-10.84 50.51) rotate(-45.93)" fill="#542501"/><rect x="22.07" y="40.27" width="5.08" height="1.56" rx="0.69" transform="translate(-22.9 46.82) rotate(-65.99)" fill="#542501"/><rect x="31.35" y="18.05" width="1.56" height="5.08" rx="0.69" transform="translate(-6 19.07) rotate(-30.37)" fill="#542501"/><rect x="39.84" y="51.28" width="5.08" height="1.56" rx="0.69" transform="translate(-22.42 69.58) rotate(-65.99)" fill="#542501"/><rect x="15.05" y="10.12" width="5.08" height="1.56" rx="0.69" transform="translate(-2.92 8.14) rotate(-24.12)" fill="#542501"/><rect x="24.07" y="9.73" width="1.56" height="5.08" rx="0.69" transform="translate(-1.03 2.36) rotate(-5.34)" fill="#542501"/><rect x="9.42" y="19.27" width="5.08" height="1.56" rx="0.69" transform="translate(-6.06 5.2) rotate(-19.69)" fill="#542501"/><rect x="28.96" y="2.91" width="1.56" height="5.08" rx="0.69" transform="translate(5.14 23.03) rotate(-45.93)" fill="#542501"/><rect x="2.42" y="33.22" width="5.08" height="1.56" rx="0.69" transform="translate(-28.11 24.7) rotate(-66)" fill="#542501"/></svg>