<svg xmlns="http://www.w3.org/2000/svg" viewBox="0 0 109.33 76.28"><path d="M54.25,0C24.77,0,.88,12.32.88,38.14S24.77,76.28,54.25,76.28s53.37-12.36,53.37-38.14S83.72,0,54.25,0Zm0,43.13c-9.42,0-17-3.36-17-7.49s7.63-7.49,17-7.49,17,3.36,17,7.49S63.66,43.13,54.25,43.13Z" fill="#f98b06"/><path d="M70.15,28.62c-2.8.56-5.6-.67-8.35-1.46a28,28,0,0,0-15.6.08c-2.1.63-4.33,1.52-6.42.85A5.4,5.4,0,0,1,37,25.84c-.45-.68-.78-2.58-1.59-2.86-1.87-.64-1.89,5.9-1.78,7a6.92,6.92,0,0,0,1.81,4.46,5.63,5.63,0,0,0,1.77,1.11c.08-4.1,7.67-7.42,17-7.42s17,3.36,17,7.49c0,0,0,.11,0,.16a9.5,9.5,0,0,0,3.14-1.63,10,10,0,0,0,3.27-5.85,25.86,25.86,0,0,0,.24-6.81C76,24.6,73.71,27.91,70.15,28.62Z" fill="#ce6f06"/><path d="M.88,38.14c0,.75,0,1.49.06,2.21a1.13,1.13,0,0,0,.1.13c1.14,1.32,3,1.83,4.34,2.91,3.42,2.67,3.48,8.15,6.82,10.92,3.62,3,9.05,1.4,13.62,2.48,7.08,1.69,12,9.87,19.27,9.53,4.73-.22,8.71-4.15,13.45-4.25,4.2-.09,7.83,2.83,11.91,3.84,5,1.24,10.42-.57,14.47-3.77s6.93-7.64,9.34-12.21a22.37,22.37,0,0,1,3.59-5.58,6.54,6.54,0,0,1,6-2.06c1.14.3,2.32,1,3.43.92a39.62,39.62,0,0,0,.33-5.07Z" fill="#ce6f06"/><path d="M45,73.49C16.54,71.19.88,56,1,35.75c0,.78-.07,1.58-.07,2.39C.88,64,24.77,76.28,54.25,76.28s53.37-12.36,53.37-38.14c0-.81,0-1.61-.07-2.39C100.44,61.85,73.78,75.82,45,73.49Z" fill="#ce6f06"/><path d="M109.26,37.06A51.35,51.35,0,0,0,106,24C100.92,7,77.7.18,54.25,0,30.43-.17,6.37,6.62.88,30.55c-.63,2.75-1.69,5.9.16,8,1.14,1.32,3,1.83,4.34,2.9C8.8,44.15,8.86,49.64,12.2,52.4c3.62,3,9.05,1.4,13.62,2.49,7.08,1.69,12,9.86,19.27,9.52,4.73-.22,8.71-4.14,13.45-4.24,4.2-.09,7.83,2.82,11.91,3.83,5,1.24,10.42-.56,14.47-3.76S91.85,52.59,94.26,48a22.13,22.13,0,0,1,3.59-5.57,6.51,6.51,0,0,1,6-2.06c1.37.36,2.79,1.33,4.08.75S109.44,38.59,109.26,37.06ZM36.16,25.6a3.14,3.14,0,0,1,2.69-4.12c1.63-.31,3.26.47,4.9.65,5.12.55,10-4.75,15-3.23,3.15,1,5.57,4.53,8.81,4.75,1.55.1,3.06-.59,4.61-.58s3.31.68,3.31,2.53C75.44,35.87,39.34,36.73,36.16,25.6Z" fill="#77300c"/><path d="M102.55,37.21c-4-.14-7.58,2.59-9.9,5.83s-3.72,7.05-5.73,10.5S82,60.25,78.16,61.22c-8.17,2.06-16-6.79-24.28-5.13C49.41,57,45.43,60.9,41,59.92c-3.62-.8-5.71-4.48-8.51-6.92a14.28,14.28,0,0,0-10.94-3.37c-3.45.41-7.54,1.89-10-.6-2.23-2.28-1.18-6.35-3.05-8.94a9.32,9.32,0,0,0-4.2-2.73A9.2,9.2,0,0,1,.14,34.59l-.08-.12a5.1,5.1,0,0,0,1,4.11c1.14,1.32,3,1.83,4.34,2.9C8.8,44.15,8.86,49.64,12.2,52.4c3.62,3,9.05,1.4,13.62,2.49,7.08,1.69,12,9.86,19.27,9.52,4.73-.22,8.71-4.14,13.45-4.24,4.2-.09,7.83,2.82,11.91,3.83,5,1.24,10.42-.56,14.47-3.76S91.85,52.59,94.26,48a22.13,22.13,0,0,1,3.59-5.57,6.51,6.51,0,0,1,6-2.06c1.37.36,2.79,1.33,4.08.75,1.11-.5,1.4-1.81,1.39-3.08a6.61,6.61,0,0,1-.76,0C106.54,38.09,104.58,37.28,102.55,37.21Z" fill="#592209"/><path d="M24.76,45.89c.26.42-.31,1.4-1.77,2.44a9.57,9.57,0,0,1-2.92,1.36,9,9,0,0,1-4.18.14A7.37,7.37,0,0,1,12,47.72a6,6,0,0,1-1.59-3.24,3.89,3.89,0,0,1,.33-2.36c.28-.51.61-.69.84-.62.5.16.62,1.15,1.32,2.2a5.66,5.66,0,0,0,1.42,1.53,6.11,6.11,0,0,0,2.31,1A12.88,12.88,0,0,0,21.92,46C23.41,45.63,24.49,45.45,24.76,45.89Z" fill="#a05522"/><path d="M47.51,53.74c.19.17.19.53,0,1a6.15,6.15,0,0,1-1.19,2A6.93,6.93,0,0,1,45,57.93a5.9,5.9,0,0,1-2,.83,5.16,5.16,0,0,1-2.65-.13A4.41,4.41,0,0,1,39,57.91a5.46,5.46,0,0,1-1-1.06A13.07,13.07,0,0,1,36.86,55a14.33,14.33,0,0,0-.79-1.34,18.37,18.37,0,0,0-1.68-2.14c-1.06-1.19-1.89-2-1.7-2.45s1.46-.54,3.25.34a9.93,9.93,0,0,1,2.78,2.11A11,11,0,0,1,40,53.16c.37.61.66,1.15.91,1.49a1.63,1.63,0,0,0,.65.57,2.12,2.12,0,0,0,1,.17,3.66,3.66,0,0,0,1.09-.18,7.79,7.79,0,0,0,1.07-.45c.69-.35,1.3-.73,1.78-.93S47.31,53.57,47.51,53.74Z" fill="#a05522"/><path d="M89.81,43.77c.41.3-.12,1.83-1.32,4.08-.59,1.12-1.36,2.42-2.25,3.83q-.67,1.07-1.44,2.19c-.51.76-1,1.51-1.64,2.34A13.1,13.1,0,0,1,81,58.56,7.84,7.84,0,0,1,78,60.05a8.41,8.41,0,0,1-2.86.2,10.65,10.65,0,0,1-2.27-.48A10.77,10.77,0,0,1,70,58.39c-.62-.44-.9-.8-.82-1s.54-.34,1.27-.33,1.73.13,2.9.18A9.12,9.12,0,0,0,77,56.79a5.12,5.12,0,0,0,1.6-1A12.13,12.13,0,0,0,80.21,54c.56-.75,1.11-1.5,1.65-2.21s1.08-1.42,1.61-2.07c1-1.3,2-2.44,2.9-3.37C88.11,44.47,89.39,43.47,89.81,43.77Z" fill="#a05522"/><path d="M80.73,36.75c-5.61,7.61,19.69-3.47,9.21-20.57A22.91,22.91,0,0,0,79.16,6.87,70.51,70.51,0,0,0,59.34,2.1c-3-.29-5.93-.44-8.74-.44A74.68,74.68,0,0,0,34.46,3.38a44.8,44.8,0,0,0-13.21,5l-.05,0-.05,0c-3.73,2.42-8.18,6-9.6,12l0,.14,0,.13,0,.36a11,11,0,0,0-.11,2.67,14.79,14.79,0,0,0,4.09,8.92v0h0a24.88,24.88,0,0,0,5.25,4.14,42.76,42.76,0,0,0,9.33,4.06h.05a47.79,47.79,0,0,0,13.61,2.21h.22a17.11,17.11,0,0,0,4.39-.5c2.73-.76,3.26-2.34,3.32-3.22.23-2.87-3.23-4.15-4.9-4.76l-.32-.12c-1-.41-2-.81-2.91-1.19l-2.63-1.08c-4.32-1.81-18-11.29-3-14a99.21,99.21,0,0,1,17.58-1.76c1,0,1.94,0,2.93,0,6,.16,12.42,1.19,17.06,3.37C79.8,22,86.35,29.15,80.73,36.75Z" fill="#844012"/><path d="M80.34,21.22c-.22.12-.62,0-1.14-.42l-.42-.32-.51-.38c-.37-.27-.73-.6-1.22-.92l-.72-.53-.82-.53c-.55-.39-1.23-.73-1.9-1.13a36.12,36.12,0,0,0-5-2.14,49.5,49.5,0,0,0-13.91-2.54,52.51,52.51,0,0,0-8.35.27,38.79,38.79,0,0,0-8.53,1.84,20.46,20.46,0,0,0-7,3.89,10,10,0,0,0-2.08,2.53,4.56,4.56,0,0,0-.61,2.35c.05,1.53,1.19,3.43,2.7,5a28.24,28.24,0,0,0,4.95,4,65.44,65.44,0,0,0,8.63,4.6c2.14,1,3.39,1.57,3.33,2.1s-1.48.88-4,.69a31.5,31.5,0,0,1-10.42-2.79,28.55,28.55,0,0,1-6.63-4.09,17.22,17.22,0,0,1-3.21-3.48,12.12,12.12,0,0,1-2.09-5.28,11.21,11.21,0,0,1,1-6.16A16.3,16.3,0,0,1,25.87,13a25.82,25.82,0,0,1,9.58-5.61A41.62,41.62,0,0,1,45.72,5.36a50.66,50.66,0,0,1,9.58.16,43.26,43.26,0,0,1,15.48,4.55A29,29,0,0,1,76,13.62a19.87,19.87,0,0,1,1.83,1.86c.27.31.52.59.74.88l.59.87A9.34,9.34,0,0,1,80,18.77a5.64,5.64,0,0,1,.27.65c.07.21.12.4.16.57C80.6,20.69,80.56,21.09,80.34,21.22Z" fill="#a05522"/><path d="M90.75,16.32c-.85-1.14-1.73-1.51-2.13-1.22s-.38,1.13-.29,2.22a22.77,22.77,0,0,1,.13,4,24,24,0,0,1-.69,3.93c-.25,1.07-.42,1.89,0,2.24s1.28.1,2.28-.9a8.34,8.34,0,0,0,.74-10.26Z" fill="#fff"/><path d="M85.66,30.26c-.44-.28-1.22.12-2.24.79s-2.28,1.61-3.73,2.56S76.86,35.34,75.83,36s-1.71,1.21-1.63,1.72,1,.85,2.37.78A9.17,9.17,0,0,0,79,38a12,12,0,0,0,2.71-1.31A12.45,12.45,0,0,0,84,34.77a9.44,9.44,0,0,0,1.41-2C86.05,31.48,86.08,30.53,85.66,30.26Z" fill="#fff"/><path d="M67.69,36.75c-2.31.15-4.12,1.1-4,2.12s2,1.72,4.29,1.57,4.12-1.11,4-2.12S70,36.6,67.69,36.75Z" fill="#fff"/><path d="M70.89,21.37c-1.71-.09-3.47.15-5.09-.42-1.94-.68-3.35-2.41-5.21-3.3-2.52-1.2-5.54-.69-8,.55-1.55.76-3,1.8-4.73,2-2.13.28-4.18-.73-6.25-1.29s-4.67-.45-5.85,1.37a4.38,4.38,0,0,0,0,4.2c.13.27.27.53.41.77a3.12,3.12,0,0,1,2.75-3.81c1.63-.31,3.26.47,4.9.65,5.12.55,10-4.75,15-3.23,3.15,1,5.57,4.53,8.81,4.75,1.55.1,3.06-.59,4.61-.58s3.31.68,3.31,2.53a1.09,1.09,0,0,1,0,.18,3.11,3.11,0,0,0-.18-2.14C74.5,22.07,72.6,21.47,70.89,21.37Z" fill="#592209"/><path d="M9.11,32.29a2,2,0,0,0-.79-1.1,2,2,0,0,0-1.22-.36,1.94,1.94,0,0,0-.51,3.76,1.88,1.88,0,0,0,.88,0,2.12,2.12,0,0,0,1.34-.77A1.8,1.8,0,0,0,9.11,32.29Z" fill="#25bbdf"/><path d="M8.11,31.73a.62.62,0,0,0-.61-.44.57.57,0,0,0-.51.8.61.61,0,0,0,.35.34.82.82,0,0,0,.27,0A.62.62,0,0,0,8,32.2.55.55,0,0,0,8.11,31.73Z" fill="#64e0ed"/><path d="M9.11,32.29A1.66,1.66,0,0,0,9,31.92,1.47,1.47,0,0,1,8.68,33a1.71,1.71,0,0,1-1.08.62,1.55,1.55,0,0,1-.71,0A1.56,1.56,0,0,1,6,32.71a1.53,1.53,0,0,1,.22-1.59,1.87,1.87,0,0,0-.74,2.37,1.91,1.91,0,0,0,1.16,1.1,1.88,1.88,0,0,0,.88,0,2.12,2.12,0,0,0,1.34-.77A1.8,1.8,0,0,0,9.11,32.29Z" fill="#089ab2"/><path d="M37.92,33.17a1.94,1.94,0,0,0-.8-1.1,2,2,0,0,0-1.21-.36,1.92,1.92,0,1,0,.36,3.8,2.07,2.07,0,0,0,1.34-.77A1.81,1.81,0,0,0,37.92,33.17Z" fill="#f75295"/><path d="M36.91,32.61a.59.59,0,0,0-.24-.33.56.56,0,0,0-.37-.11.57.57,0,0,0-.5.8.59.59,0,0,0,.35.34.77.77,0,0,0,.26,0,.67.67,0,0,0,.41-.24A.52.52,0,0,0,36.91,32.61Z" fill="#ff83b3"/><path d="M37.92,33.17a2.39,2.39,0,0,0-.15-.37,1.47,1.47,0,0,1-.28,1.09,1.71,1.71,0,0,1-1.08.62,1.6,1.6,0,0,1-.72,0,1.54,1.54,0,0,1-.93-.89A1.51,1.51,0,0,1,35,32a1.86,1.86,0,0,0-.74,2.37,1.77,1.77,0,0,0,2,1.14,2.07,2.07,0,0,0,1.34-.77A1.81,1.81,0,0,0,37.92,33.17Z" fill="#ef227f"/><path d="M83.91,11.06a2.78,2.78,0,0,0-1.09-1.51,2.82,2.82,0,0,0-1.67-.48,2.66,2.66,0,0,0-.71,5.16,2.65,2.65,0,0,0,1.22,0,2.93,2.93,0,0,0,1.83-1A2.51,2.51,0,0,0,83.91,11.06Z" fill="#f75295"/><path d="M82.53,10.3a.86.86,0,0,0-.33-.46.91.91,0,0,0-.5-.15.8.8,0,0,0-.22,1.56.78.78,0,0,0,.37,0A.87.87,0,0,0,82.4,11,.74.74,0,0,0,82.53,10.3Z" fill="#ff83b3"/><path d="M83.91,11.06a2.37,2.37,0,0,0-.2-.5,2,2,0,0,1-.39,1.5,2.34,2.34,0,0,1-1.48.85,2.17,2.17,0,0,1-1,0,2.1,2.1,0,0,1-1.28-1.23,2.07,2.07,0,0,1,.3-2.18,2.57,2.57,0,0,0-1,3.26,2.61,2.61,0,0,0,1.58,1.51,2.65,2.65,0,0,0,1.22,0,2.93,2.93,0,0,0,1.83-1A2.51,2.51,0,0,0,83.91,11.06Z" fill="#ef227f"/><path d="M36.19,8.43A2.83,2.83,0,0,0,35.1,6.92a2.79,2.79,0,0,0-1.67-.48,2.6,2.6,0,0,0-2.3,3.65,2.66,2.66,0,0,0,1.59,1.51,2.61,2.61,0,0,0,1.21.05,3,3,0,0,0,1.84-1.05A2.54,2.54,0,0,0,36.19,8.43Z" fill="#f75295"/><path d="M34.8,7.67a.81.81,0,0,0-.33-.46.84.84,0,0,0-.5-.15.79.79,0,0,0-.69,1.11.8.8,0,0,0,.47.45.78.78,0,0,0,.37,0,.89.89,0,0,0,.56-.32A.74.74,0,0,0,34.8,7.67Z" fill="#ff83b3"/><path d="M36.19,8.43a3.07,3.07,0,0,0-.2-.5,2.06,2.06,0,0,1-.39,1.5,2.4,2.4,0,0,1-1.49.85,2.17,2.17,0,0,1-1,0A2.13,2.13,0,0,1,31.85,9a2.07,2.07,0,0,1,.3-2.18,2.57,2.57,0,0,0-1,3.26,2.66,2.66,0,0,0,1.59,1.51,2.61,2.61,0,0,0,1.21.05,3,3,0,0,0,1.84-1.05A2.54,2.54,0,0,0,36.19,8.43Z" fill="#ef227f"/><path d="M22.94,17.84A3.5,3.5,0,0,0,21.58,16a3.44,3.44,0,0,0-2.07-.6,3.23,3.23,0,0,0-2.86,4.54,3.29,3.29,0,0,0,2,1.88,3.22,3.22,0,0,0,1.51.06,3.65,3.65,0,0,0,2.29-1.31A3.13,3.13,0,0,0,22.94,17.84Z" fill="#f9dec0"/><path d="M21.22,16.89a1.08,1.08,0,0,0-.41-.57,1,1,0,0,0-.63-.18,1,1,0,0,0-.27,1.94,1.19,1.19,0,0,0,.46,0,1.11,1.11,0,0,0,.69-.4A.93.93,0,0,0,21.22,16.89Z" fill="#fff"/><path d="M22.94,17.84a3.35,3.35,0,0,0-.25-.62,2.56,2.56,0,0,1-.48,1.86,2.93,2.93,0,0,1-1.85,1.05,2.52,2.52,0,0,1-1.22-.05,2.64,2.64,0,0,1-1.6-1.52,2.58,2.58,0,0,1,.38-2.72,3.2,3.2,0,0,0-1.27,4.06,3.29,3.29,0,0,0,2,1.88,3.22,3.22,0,0,0,1.51.06,3.65,3.65,0,0,0,2.29-1.31A3.13,3.13,0,0,0,22.94,17.84Z" fill="#edc99d"/><path d="M42.06,46.86a2.07,2.07,0,0,0,1.34.77,2,2,0,0,0,.88,0,1.94,1.94,0,0,0,1.15-1.11,1.89,1.89,0,0,0-1.67-2.66,2,2,0,0,0-1.21.36,2,2,0,0,0-.8,1.1A1.84,1.84,0,0,0,42.06,46.86Z" fill="#25bbdf"/><path d="M42.85,45.21a.7.7,0,0,0,.41.23.76.76,0,0,0,.26,0,.59.59,0,0,0-.15-1.14.62.62,0,0,0-.37.11.59.59,0,0,0-.24.33A.54.54,0,0,0,42.85,45.21Z" fill="#64e0ed"/><path d="M41.75,45.29a2.39,2.39,0,0,1,.15-.37A1.47,1.47,0,0,0,42.18,46a1.71,1.71,0,0,0,1.08.62,1.6,1.6,0,0,0,.72,0,1.54,1.54,0,0,0,.93-.89,1.49,1.49,0,0,0-.22-1.59,1.86,1.86,0,0,1,.74,2.37,1.94,1.94,0,0,1-1.15,1.11,2,2,0,0,1-.88,0,2.07,2.07,0,0,1-1.34-.77A1.84,1.84,0,0,1,41.75,45.29Z" fill="#089ab2"/><path d="M90.93,32a2.12,2.12,0,0,0,1.34.76,1.87,1.87,0,0,0,.88,0,2,2,0,0,0,1.16-1.1,1.89,1.89,0,0,0-1.68-2.66,2,2,0,0,0-1.21.35,2,2,0,0,0-.8,1.1A1.86,1.86,0,0,0,90.93,32Z" fill="#25bbdf"/><path d="M91.72,30.29a.65.65,0,0,0,.41.23.58.58,0,1,0,.11-1.15.62.62,0,0,0-.37.11.66.66,0,0,0-.24.33A.58.58,0,0,0,91.72,30.29Z" fill="#64e0ed"/><path d="M90.62,30.37a1.94,1.94,0,0,1,.15-.36,1.5,1.5,0,0,0,.28,1.08,1.66,1.66,0,0,0,1.09.62,1.43,1.43,0,0,0,.71,0,1.51,1.51,0,0,0,.93-.89,1.49,1.49,0,0,0-.22-1.59,1.88,1.88,0,0,1,.75,2.38,2,2,0,0,1-1.16,1.1,1.87,1.87,0,0,1-.88,0A2.12,2.12,0,0,1,90.93,32,1.86,1.86,0,0,1,90.62,30.37Z" fill="#089ab2"/><path d="M65.49,9.66A3.6,3.6,0,0,0,67.78,11a3.22,3.22,0,0,0,1.51-.06,3.29,3.29,0,0,0,2-1.88A3.23,3.23,0,0,0,68.4,4.49a3.44,3.44,0,0,0-2.07.6A3.5,3.5,0,0,0,65,7,3.13,3.13,0,0,0,65.49,9.66Z" fill="#25bbdf"/><path d="M66.85,6.83a1.11,1.11,0,0,0,.69.4,1.19,1.19,0,0,0,.46,0,1,1,0,0,0-.27-1.94,1,1,0,0,0-.63.18,1.08,1.08,0,0,0-.41.57A.93.93,0,0,0,66.85,6.83Z" fill="#64e0ed"/><path d="M65,7a3.66,3.66,0,0,1,.25-.62,2.56,2.56,0,0,0,.48,1.86,2.93,2.93,0,0,0,1.85,1,2.65,2.65,0,0,0,1.22,0,2.68,2.68,0,0,0,1.6-1.53A2.56,2.56,0,0,0,70,5a3.18,3.18,0,0,1,1.27,4,3.29,3.29,0,0,1-2,1.88,3.22,3.22,0,0,1-1.51.06,3.6,3.6,0,0,1-2.29-1.31A3.13,3.13,0,0,1,65,7Z" fill="#089ab2"/><path d="M54.23,13a2.12,2.12,0,0,0,1.34.76,1.87,1.87,0,0,0,.88,0,1.93,1.93,0,0,0,1.16-1.1A1.89,1.89,0,0,0,55.93,10a2,2,0,0,0-1.21.35,2,2,0,0,0-.79,1.1A1.82,1.82,0,0,0,54.23,13Z" fill="#f75295"/><path d="M55,11.35a.65.65,0,0,0,.41.23.5.5,0,0,0,.27,0,.53.53,0,0,0,.34-.33.57.57,0,0,0-.5-.81.7.7,0,0,0-.37.11.66.66,0,0,0-.24.33A.61.61,0,0,0,55,11.35Z" fill="#ff83b3"/><path d="M53.93,11.43a1.78,1.78,0,0,1,.14-.36,1.54,1.54,0,0,0,.28,1.09,1.78,1.78,0,0,0,1.09.62,1.56,1.56,0,0,0,.71,0,1.54,1.54,0,0,0,.93-.89,1.51,1.51,0,0,0-.22-1.6,1.88,1.88,0,0,1,.75,2.38,1.93,1.93,0,0,1-1.16,1.1,1.87,1.87,0,0,1-.88,0A2.12,2.12,0,0,1,54.23,13,1.82,1.82,0,0,1,53.93,11.43Z" fill="#ef227f"/><path d="M62.72,48.89A3.55,3.55,0,0,0,65,50.2a3.09,3.09,0,0,0,1.51-.06,3.31,3.31,0,0,0-.88-6.42A3.42,3.42,0,0,0,62.2,46.2,3.09,3.09,0,0,0,62.72,48.89Z" fill="#f9dec0"/><path d="M64.07,46.06a1.11,1.11,0,0,0,.69.4,1,1,0,0,0,.46,0,1,1,0,0,0,.6-.57A1,1,0,0,0,65,44.5a1,1,0,0,0-.62.18,1,1,0,0,0-.41.57A1,1,0,0,0,64.07,46.06Z" fill="#fff"/><path d="M62.2,46.2a3.61,3.61,0,0,1,.24-.62,2.56,2.56,0,0,0,.49,1.86,3,3,0,0,0,1.85,1.06,2.81,2.81,0,0,0,1.22,0,2.67,2.67,0,0,0,1.59-1.52,2.6,2.6,0,0,0-.37-2.72,3.19,3.19,0,0,1,1.26,4,3.24,3.24,0,0,1-2,1.88A3.09,3.09,0,0,1,65,50.2a3.55,3.55,0,0,1-2.28-1.31A3.09,3.09,0,0,1,62.2,46.2Z" fill="#edc99d"/><path d="M26.62,42a3.58,3.58,0,0,0,2.29,1.3,3.1,3.1,0,0,0,1.51-.06,3.29,3.29,0,0,0,2-1.88,3.23,3.23,0,0,0-2.86-4.54,3.49,3.49,0,0,0-2.07.6,3.45,3.45,0,0,0-1.36,1.88A3.15,3.15,0,0,0,26.62,42Z" fill="#f9dec0"/><path d="M28,39.13a1.09,1.09,0,0,0,.69.4.86.86,0,0,0,.45,0,1,1,0,0,0,.6-.57,1,1,0,0,0-.86-1.37,1,1,0,0,0-1,.75A.92.92,0,0,0,28,39.13Z" fill="#fff"/><path d="M26.1,39.27a3,3,0,0,1,.25-.62,2.55,2.55,0,0,0,.48,1.86,2.94,2.94,0,0,0,1.85,1.06A2.44,2.44,0,0,0,31.49,40a2.58,2.58,0,0,0-.37-2.72,3.18,3.18,0,0,1,1.27,4,3.29,3.29,0,0,1-2,1.88,3.1,3.1,0,0,1-1.51.06A3.58,3.58,0,0,1,26.62,42,3.15,3.15,0,0,1,26.1,39.27Z" fill="#edc99d"/></svg>